<svg xmlns="http://www.w3.org/2000/svg" xmlns:xlink="http://www.w3.org/1999/xlink" xmlns:lucid="lucid" width="1060" height="600"><g transform="translate(-120 -360)" lucid:page-tab-id="0_0"><path d="M200 466c0-3.3 2.7-6 6-6h388c3.3 0 6 2.7 6 6v188c0 3.3-2.7 6-6 6H206c-3.3 0-6-2.7-6-6z" stroke="#5e5e5e" stroke-width="3" fill="#fff"/><use xlink:href="#a" transform="matrix(1,0,0,1,212,472) translate(114.85185185185185 94.77777777777777)"/><use xlink:href="#b" transform="matrix(1,0,0,1,212,472) translate(208.55555555555554 94.77777777777777)"/><path d="M700 466c0-3.3 2.7-6 6-6h388c3.3 0 6 2.7 6 6v188c0 3.3-2.7 6-6 6H706c-3.3 0-6-2.7-6-6z" stroke="#5e5e5e" stroke-width="3" fill="#fff"/><use xlink:href="#c" transform="matrix(1,0,0,1,712,472) translate(109.88271604938272 94.77777777777777)"/><use xlink:href="#b" transform="matrix(1,0,0,1,712,472) translate(213.5246913580247 94.77777777777777)"/><g fill="none"><path d="M1154 700c3.3 0 6 2.7 6 6v183c0 3.3-2.7 6-6 6H146c-3.3 0-6-2.7-6-6V706c0-3.3 2.7-6 6-6z"/><path d="M140 700c0 5.52 4.48 10 10 10h490c5.52 0 10 4.48 10 10 0-5.52 4.48-10 10-10h490c5.52 0 10-4.48 10-10" stroke="#5e5e5e" stroke-width="3"/></g><g fill="none"><path d="M650 410.75c.4 0 .75.34.75.75v87c0 .4-.34.75-.75.75-.4 0-.75-.34-.75-.75v-87c0-.4.34-.75.75-.75z"/><path d="M650.75 421.65v8.7m0 5.8v8.7m0 5.8v8.7m0 5.8v8.7m0 5.8v8.7m0 5.8v4.35l-.22.53-.53.22-.53-.22-.22-.53v-4.35m0-5.8v-8.7m0-5.8v-8.7m0-5.8v-8.7m0-5.8v-8.7m0-5.8v-8.7m0-5.8v-4.35l.22-.53.53-.22.53.22.22.53v4.35" stroke="#5e5e5e" stroke-width="1.5"/></g><g fill="none"><path d="M161.5 410.75c.4 0 .75.34.75.75v147c0 .4-.34.75-.75.75-.4 0-.75-.34-.75-.75v-147c0-.4.34-.75.75-.75z"/><path d="M162.25 421.8v8.8m0 5.9v8.8m0 5.9v8.8m0 5.9v8.8m0 5.9v8.8m0 5.9v8.8m0 5.9v8.8m0 5.9v8.8m0 5.9v8.8m0 5.9v4.4l-.22.53-.53.22-.53-.22-.22-.53v-4.4m0-5.9v-8.8m0-5.9v-8.8m0-5.9V510m0-5.9v-8.8m0-5.9v-8.8m0-5.9v-8.8m0-5.9v-8.8m0-5.9v-8.8m0-5.9v-8.8m0-5.9v-4.4l.22-.53.53-.22.53.22.22.53v4.4" stroke="#5e5e5e" stroke-width="1.5"/></g><path d="M530 526c0-3.3 2.7-6 6-6h228c3.3 0 6 2.7 6 6v72.67c0 3.3-2.7 6-6 6H536c-3.3 0-6-2.7-6-6z" stroke="#000" stroke-opacity="0" stroke-width="3" fill="#fff" fill-opacity="0"/><use xlink:href="#d" transform="matrix(1,0,0,1,535,525) translate(96.85185185185188 52.121527777777715)"/><g fill="none"><path d="M1141.5 410.75c.4 0 .75.34.75.75v147c0 .4-.34.75-.75.75-.4 0-.75-.34-.75-.75v-147c0-.4.34-.75.75-.75z"/><path d="M1142.25 421.8v8.8m0 5.9v8.8m0 5.9v8.8m0 5.9v8.8m0 5.9v8.8m0 5.9v8.8m0 5.9v8.8m0 5.9v8.8m0 5.9v8.8m0 5.9v4.4l-.22.53-.53.22-.53-.22-.22-.53v-4.4m0-5.9v-8.8m0-5.9v-8.8m0-5.9V510m0-5.9v-8.8m0-5.9v-8.8m0-5.9v-8.8m0-5.9v-8.8m0-5.9v-8.8m0-5.9v-8.8m0-5.9v-4.4l.22-.53.53-.22.53.22.22.53v4.4" stroke="#5e5e5e" stroke-width="1.5"/></g><path d="M181.5 432h10.68m10.68 0h21.36m10.67 0h21.35m10.68 0h21.36m10.67 0h21.35m10.68 0h21.36m10.68 0h21.35m10.67 0h21.36m10.68 0h21.36m10.68 0h21.36m10.68 0h21.35m10.68 0h21.37m10.68 0h21.35m10.68 0h21.36m10.68 0H630" stroke="#5e5e5e" stroke-width="2" fill="none"/><path d="M166.24 432l14.26-4.64v9.28zM645.26 432L631 436.64v-9.28z" stroke="#5e5e5e" stroke-width="2" fill="#5e5e5e"/><path d="M670 432h9.4m9.4 0h18.83m9.4 0h18.82m9.4 0h18.8m9.42 0h18.8m9.42 0h18.8m9.4 0h18.82m9.4 0h18.82m9.4 0h18.82m9.4 0h18.8m9.42 0h18.8m9.42 0h18.8m9.42 0h18.8m9.42 0h18.8m9.4 0h18.83m9.4 0h18.8m9.42 0h9.4" stroke="#5e5e5e" stroke-width="2" fill="none"/><path d="M654.74 432l14.26-4.64v9.28zM1136.76 432l-14.26 4.64v-9.28z" stroke="#5e5e5e" stroke-width="2" fill="#5e5e5e"/><path d="M190 386c0-3.3 2.7-6 6-6h408c3.3 0 6 2.7 6 6v51.33c0 3.32-2.7 6-6 6H196c-3.3 0-6-2.68-6-6z" stroke="#000" stroke-opacity="0" stroke-width="3" fill="#fff" fill-opacity="0"/><use xlink:href="#e" transform="matrix(1,0,0,1,195.00000000000003,385) translate(21.80555555555557 29.5)"/><use xlink:href="#f" transform="matrix(1,0,0,1,195.00000000000003,385) translate(88.41666666666667 29.5)"/><use xlink:href="#g" transform="matrix(1,0,0,1,195.00000000000003,385) translate(150.58333333333331 29.5)"/><use xlink:href="#h" transform="matrix(1,0,0,1,195.00000000000003,385) translate(183.91666666666666 29.5)"/><use xlink:href="#i" transform="matrix(1,0,0,1,195.00000000000003,385) translate(287.1388888888889 29.5)"/><use xlink:href="#j" transform="matrix(1,0,0,1,195.00000000000003,385) translate(307.08333333333337 29.5)"/><path d="M690 386c0-3.3 2.7-6 6-6h408c3.3 0 6 2.7 6 6v51.33c0 3.32-2.7 6-6 6H696c-3.3 0-6-2.68-6-6z" stroke="#000" stroke-opacity="0" stroke-width="3" fill="#fff" fill-opacity="0"/><g><use xlink:href="#e" transform="matrix(1,0,0,1,695,385) translate(30.138888888888914 29.5)"/><use xlink:href="#k" transform="matrix(1,0,0,1,695,385) translate(96.75000000000001 29.5)"/><use xlink:href="#g" transform="matrix(1,0,0,1,695,385) translate(142.25 29.5)"/><use xlink:href="#h" transform="matrix(1,0,0,1,695,385) translate(175.58333333333331 29.5)"/><use xlink:href="#i" transform="matrix(1,0,0,1,695,385) translate(278.80555555555554 29.5)"/><use xlink:href="#j" transform="matrix(1,0,0,1,695,385) translate(298.75 29.5)"/></g><path d="M570 826c0-3.3 2.7-6 6-6h148c3.3 0 6 2.7 6 6v108c0 3.3-2.7 6-6 6H576c-3.3 0-6-2.7-6-6z" stroke="#5e5e5e" stroke-width="3" fill="#fff"/><g><use xlink:href="#l" transform="matrix(1,0,0,1,582,832) translate(15.808641975308646 38.77777777777778)"/><use xlink:href="#m" transform="matrix(1,0,0,1,582,832) translate(74.57407407407408 38.77777777777778)"/><use xlink:href="#n" transform="matrix(1,0,0,1,582,832) translate(36.580246913580254 65.44444444444446)"/></g><path d="M530 746c0-3.3 2.7-6 6-6h228c3.3 0 6 2.7 6 6v72.67c0 3.3-2.7 6-6 6H536c-3.3 0-6-2.7-6-6z" stroke="#000" stroke-opacity="0" stroke-width="3" fill="#fff" fill-opacity="0"/><g><use xlink:href="#o" transform="matrix(1,0,0,1,535,745) translate(102.90123456790126 52.121527777777715)"/></g><defs><path fill="#333" d="M33 0v-248h34V0H33" id="p"/><path fill="#333" d="M117-194c89-4 53 116 60 194h-32v-121c0-31-8-49-39-48C34-167 62-67 57 0H25l-1-190h30c1 10-1 24 2 32 11-22 29-35 61-36" id="q"/><path fill="#333" d="M96-169c-40 0-48 33-48 73s9 75 48 75c24 0 41-14 43-38l32 2c-6 37-31 61-74 61-59 0-76-41-82-99-10-93 101-131 147-64 4 7 5 14 7 22l-32 3c-4-21-16-35-41-35" id="r"/><path fill="#333" d="M24 0v-261h32V0H24" id="s"/><path fill="#333" d="M84 4C-5 8 30-112 23-190h32v120c0 31 7 50 39 49 72-2 45-101 50-169h31l1 190h-30c-1-10 1-25-2-33-11 22-28 36-60 37" id="t"/><path fill="#333" d="M135-143c-3-34-86-38-87 0 15 53 115 12 119 90S17 21 10-45l28-5c4 36 97 45 98 0-10-56-113-15-118-90-4-57 82-63 122-42 12 7 21 19 24 35" id="u"/><path fill="#333" d="M24-231v-30h32v30H24zM24 0v-190h32V0H24" id="v"/><path fill="#333" d="M100-194c62-1 85 37 85 99 1 63-27 99-86 99S16-35 15-95c0-66 28-99 85-99zM99-20c44 1 53-31 53-75 0-43-8-75-51-75s-53 32-53 75 10 74 51 75" id="w"/><g id="a"><use transform="matrix(0.06172839506172839,0,0,0.06172839506172839,0,0)" xlink:href="#p"/><use transform="matrix(0.06172839506172839,0,0,0.06172839506172839,6.172839506172839,0)" xlink:href="#q"/><use transform="matrix(0.06172839506172839,0,0,0.06172839506172839,18.51851851851852,0)" xlink:href="#r"/><use transform="matrix(0.06172839506172839,0,0,0.06172839506172839,29.62962962962963,0)" xlink:href="#s"/><use transform="matrix(0.06172839506172839,0,0,0.06172839506172839,34.50617283950617,0)" xlink:href="#t"/><use transform="matrix(0.06172839506172839,0,0,0.06172839506172839,46.85185185185185,0)" xlink:href="#u"/><use transform="matrix(0.06172839506172839,0,0,0.06172839506172839,57.96296296296296,0)" xlink:href="#v"/><use transform="matrix(0.06172839506172839,0,0,0.06172839506172839,62.839506172839506,0)" xlink:href="#w"/><use transform="matrix(0.06172839506172839,0,0,0.06172839506172839,75.18518518518519,0)" xlink:href="#q"/></g><path fill="#333" d="M30 0v-248h187v28H63v79h144v27H63v87h162V0H30" id="x"/><path fill="#333" d="M101-234c-31-9-42 10-38 44h38v23H63V0H32v-167H5v-23h27c-7-52 17-82 69-68v24" id="y"/><path fill="#333" d="M114-163C36-179 61-72 57 0H25l-1-190h30c1 12-1 29 2 39 6-27 23-49 58-41v29" id="z"/><path fill="#333" d="M59-47c-2 24 18 29 38 22v24C64 9 27 4 27-40v-127H5v-23h24l9-43h21v43h35v23H59v120" id="A"/><g id="b"><use transform="matrix(0.06172839506172839,0,0,0.06172839506172839,0,0)" xlink:href="#x"/><use transform="matrix(0.06172839506172839,0,0,0.06172839506172839,14.814814814814813,0)" xlink:href="#y"/><use transform="matrix(0.06172839506172839,0,0,0.06172839506172839,20.555555555555554,0)" xlink:href="#y"/><use transform="matrix(0.06172839506172839,0,0,0.06172839506172839,26.728395061728392,0)" xlink:href="#w"/><use transform="matrix(0.06172839506172839,0,0,0.06172839506172839,39.07407407407407,0)" xlink:href="#z"/><use transform="matrix(0.06172839506172839,0,0,0.06172839506172839,46.419753086419746,0)" xlink:href="#A"/></g><path fill="#333" d="M141 0L90-78 38 0H4l68-98-65-92h35l48 74 47-74h35l-64 92 68 98h-35" id="B"/><path fill="#333" d="M100-194c63 0 86 42 84 106H49c0 40 14 67 53 68 26 1 43-12 49-29l28 8c-11 28-37 45-77 45C44 4 14-33 15-96c1-61 26-98 85-98zm52 81c6-60-76-77-97-28-3 7-6 17-6 28h103" id="C"/><g id="c"><use transform="matrix(0.06172839506172839,0,0,0.06172839506172839,0,0)" xlink:href="#x"/><use transform="matrix(0.06172839506172839,0,0,0.06172839506172839,14.814814814814813,0)" xlink:href="#B"/><use transform="matrix(0.06172839506172839,0,0,0.06172839506172839,25.925925925925924,0)" xlink:href="#C"/><use transform="matrix(0.06172839506172839,0,0,0.06172839506172839,38.2716049382716,0)" xlink:href="#r"/><use transform="matrix(0.06172839506172839,0,0,0.06172839506172839,49.38271604938271,0)" xlink:href="#t"/><use transform="matrix(0.06172839506172839,0,0,0.06172839506172839,61.728395061728385,0)" xlink:href="#A"/><use transform="matrix(0.06172839506172839,0,0,0.06172839506172839,67.90123456790123,0)" xlink:href="#v"/><use transform="matrix(0.06172839506172839,0,0,0.06172839506172839,72.77777777777777,0)" xlink:href="#w"/><use transform="matrix(0.06172839506172839,0,0,0.06172839506172839,85.12345679012346,0)" xlink:href="#q"/></g><path fill="#333" d="M118-107v75H92v-75H18v-26h74v-75h26v75h74v26h-74" id="D"/><use transform="matrix(0.17283950617283927,0,0,0.17283950617283927,0,0)" xlink:href="#D" id="d"/><path fill="#333" d="M194 0L95-120 63-95V0H30v-248h33v124l119-124h40L117-140 236 0h-42" id="E"/><path fill="#333" d="M206 0h-36l-40-164L89 0H53L-1-190h32L70-26l43-164h34l41 164 42-164h31" id="F"/><g id="e"><use transform="matrix(0.055555555555555546,0,0,0.055555555555555546,0,0)" xlink:href="#E"/><use transform="matrix(0.055555555555555546,0,0,0.055555555555555546,13.33333333333333,0)" xlink:href="#q"/><use transform="matrix(0.055555555555555546,0,0,0.055555555555555546,24.44444444444444,0)" xlink:href="#w"/><use transform="matrix(0.055555555555555546,0,0,0.055555555555555546,35.55555555555555,0)" xlink:href="#F"/><use transform="matrix(0.055555555555555546,0,0,0.055555555555555546,49.944444444444436,0)" xlink:href="#q"/></g><path fill="#333" d="M115-194c53 0 69 39 70 98 0 66-23 100-70 100C84 3 66-7 56-30L54 0H23l1-261h32v101c10-23 28-34 59-34zm-8 174c40 0 45-34 45-75 0-40-5-75-45-74-42 0-51 32-51 76 0 43 10 73 51 73" id="G"/><g id="f"><use transform="matrix(0.055555555555555546,0,0,0.055555555555555546,0,0)" xlink:href="#G"/><use transform="matrix(0.055555555555555546,0,0,0.055555555555555546,11.111111111111109,0)" xlink:href="#C"/><use transform="matrix(0.055555555555555546,0,0,0.055555555555555546,22.222222222222218,0)" xlink:href="#y"/><use transform="matrix(0.055555555555555546,0,0,0.055555555555555546,27.77777777777777,0)" xlink:href="#w"/><use transform="matrix(0.055555555555555546,0,0,0.055555555555555546,38.88888888888888,0)" xlink:href="#z"/><use transform="matrix(0.055555555555555546,0,0,0.055555555555555546,45.499999999999986,0)" xlink:href="#C"/></g><path fill="#333" d="M106-169C34-169 62-67 57 0H25v-261h32l-1 103c12-21 28-36 61-36 89 0 53 116 60 194h-32v-121c2-32-8-49-39-48" id="H"/><g id="g"><use transform="matrix(0.055555555555555546,0,0,0.055555555555555546,0,0)" xlink:href="#A"/><use transform="matrix(0.055555555555555546,0,0,0.055555555555555546,5.5555555555555545,0)" xlink:href="#H"/><use transform="matrix(0.055555555555555546,0,0,0.055555555555555546,16.666666666666664,0)" xlink:href="#C"/></g><path fill="#333" d="M141-36C126-15 110 5 73 4 37 3 15-17 15-53c-1-64 63-63 125-63 3-35-9-54-41-54-24 1-41 7-42 31l-33-3c5-37 33-52 76-52 45 0 72 20 72 64v82c-1 20 7 32 28 27v20c-31 9-61-2-59-35zM48-53c0 20 12 33 32 33 41-3 63-29 60-74-43 2-92-5-92 41" id="I"/><g id="h"><use transform="matrix(0.055555555555555546,0,0,0.055555555555555546,0,0)" xlink:href="#A"/><use transform="matrix(0.055555555555555546,0,0,0.055555555555555546,5.5555555555555545,0)" xlink:href="#z"/><use transform="matrix(0.055555555555555546,0,0,0.055555555555555546,12.166666666666664,0)" xlink:href="#I"/><use transform="matrix(0.055555555555555546,0,0,0.055555555555555546,23.27777777777777,0)" xlink:href="#q"/><use transform="matrix(0.055555555555555546,0,0,0.055555555555555546,34.38888888888888,0)" xlink:href="#u"/><use transform="matrix(0.055555555555555546,0,0,0.055555555555555546,44.38888888888888,0)" xlink:href="#I"/><use transform="matrix(0.055555555555555546,0,0,0.055555555555555546,55.499999999999986,0)" xlink:href="#r"/><use transform="matrix(0.055555555555555546,0,0,0.055555555555555546,65.49999999999999,0)" xlink:href="#A"/><use transform="matrix(0.055555555555555546,0,0,0.055555555555555546,71.05555555555554,0)" xlink:href="#v"/><use transform="matrix(0.055555555555555546,0,0,0.055555555555555546,75.44444444444443,0)" xlink:href="#w"/><use transform="matrix(0.055555555555555546,0,0,0.055555555555555546,86.55555555555554,0)" xlink:href="#q"/></g><g id="i"><use transform="matrix(0.055555555555555546,0,0,0.055555555555555546,0,0)" xlink:href="#v"/><use transform="matrix(0.055555555555555546,0,0,0.055555555555555546,4.388888888888888,0)" xlink:href="#u"/></g><path fill="#333" d="M85-194c31 0 48 13 60 33l-1-100h32l1 261h-30c-2-10 0-23-3-31C134-8 116 4 85 4 32 4 16-35 15-94c0-66 23-100 70-100zm9 24c-40 0-46 34-46 75 0 40 6 74 45 74 42 0 51-32 51-76 0-42-9-74-50-73" id="J"/><g id="j"><use transform="matrix(0.055555555555555546,0,0,0.055555555555555546,0,0)" xlink:href="#C"/><use transform="matrix(0.055555555555555546,0,0,0.055555555555555546,11.111111111111109,0)" xlink:href="#B"/><use transform="matrix(0.055555555555555546,0,0,0.055555555555555546,21.111111111111107,0)" xlink:href="#C"/><use transform="matrix(0.055555555555555546,0,0,0.055555555555555546,32.222222222222214,0)" xlink:href="#r"/><use transform="matrix(0.055555555555555546,0,0,0.055555555555555546,42.222222222222214,0)" xlink:href="#t"/><use transform="matrix(0.055555555555555546,0,0,0.055555555555555546,53.33333333333332,0)" xlink:href="#A"/><use transform="matrix(0.055555555555555546,0,0,0.055555555555555546,58.88888888888888,0)" xlink:href="#C"/><use transform="matrix(0.055555555555555546,0,0,0.055555555555555546,69.99999999999999,0)" xlink:href="#J"/></g><g id="k"><use transform="matrix(0.055555555555555546,0,0,0.055555555555555546,0,0)" xlink:href="#I"/><use transform="matrix(0.055555555555555546,0,0,0.055555555555555546,11.111111111111109,0)" xlink:href="#y"/><use transform="matrix(0.055555555555555546,0,0,0.055555555555555546,16.666666666666664,0)" xlink:href="#A"/><use transform="matrix(0.055555555555555546,0,0,0.055555555555555546,22.222222222222218,0)" xlink:href="#C"/><use transform="matrix(0.055555555555555546,0,0,0.055555555555555546,33.33333333333333,0)" xlink:href="#z"/></g><g id="l"><use transform="matrix(0.06172839506172839,0,0,0.06172839506172839,0,0)" xlink:href="#x"/><use transform="matrix(0.06172839506172839,0,0,0.06172839506172839,14.814814814814813,0)" xlink:href="#y"/><use transform="matrix(0.06172839506172839,0,0,0.06172839506172839,20.555555555555554,0)" xlink:href="#y"/><use transform="matrix(0.06172839506172839,0,0,0.06172839506172839,26.728395061728392,0)" xlink:href="#w"/><use transform="matrix(0.06172839506172839,0,0,0.06172839506172839,39.07407407407407,0)" xlink:href="#z"/><use transform="matrix(0.06172839506172839,0,0,0.06172839506172839,46.419753086419746,0)" xlink:href="#A"/></g><path fill="#333" d="M212-179c-10-28-35-45-73-45-59 0-87 40-87 99 0 60 29 101 89 101 43 0 62-24 78-52l27 14C228-24 195 4 139 4 59 4 22-46 18-125c-6-104 99-153 187-111 19 9 31 26 39 46" id="K"/><g id="m"><use transform="matrix(0.06172839506172839,0,0,0.06172839506172839,0,0)" xlink:href="#K"/><use transform="matrix(0.06172839506172839,0,0,0.06172839506172839,15.987654320987653,0)" xlink:href="#w"/><use transform="matrix(0.06172839506172839,0,0,0.06172839506172839,28.333333333333332,0)" xlink:href="#u"/><use transform="matrix(0.06172839506172839,0,0,0.06172839506172839,39.44444444444444,0)" xlink:href="#A"/></g><path fill="#333" d="M63-220v92h138v28H63V0H30v-248h175v28H63" id="L"/><g id="n"><use transform="matrix(0.06172839506172839,0,0,0.06172839506172839,0,0)" xlink:href="#L"/><use transform="matrix(0.06172839506172839,0,0,0.06172839506172839,13.518518518518517,0)" xlink:href="#I"/><use transform="matrix(0.06172839506172839,0,0,0.06172839506172839,25.864197530864196,0)" xlink:href="#r"/><use transform="matrix(0.06172839506172839,0,0,0.06172839506172839,36.9753086419753,0)" xlink:href="#A"/><use transform="matrix(0.06172839506172839,0,0,0.06172839506172839,43.148148148148145,0)" xlink:href="#w"/><use transform="matrix(0.06172839506172839,0,0,0.06172839506172839,55.49382716049382,0)" xlink:href="#z"/></g><path fill="#333" d="M80-196l47-18 7 23-49 13 32 44-20 13-27-46-27 45-21-12 33-44-49-13 8-23 47 19-2-53h23" id="M"/><use transform="matrix(0.17283950617283927,0,0,0.17283950617283927,0,0)" xlink:href="#M" id="o"/></defs></g></svg>