<?xml version="1.0" encoding="UTF-8"?>
<svg width="114px" height="114px" viewBox="0 0 114 114" version="1.1" xmlns="http://www.w3.org/2000/svg" xmlns:xlink="http://www.w3.org/1999/xlink">
    <title>js</title>
    <g id="Page-1" stroke="none" stroke-width="1" fill="none" fill-rule="evenodd">
        <g id="fcl-js">
            <circle id="Black" fill="#000000" cx="57" cy="57" r="57"></circle>
            <g id="Unofficial_JavaScript_logo_2" transform="translate(26.000000, 35.000000)" fill="#FFFFFF" fill-rule="nonzero">
                <path d="M38.4253956,30.7920893 C40.3203834,33.8847315 42.7858089,36.1579429 47.1462222,36.1579429 C50.809268,36.1579429 53.149257,34.3280301 53.149257,31.7995861 C53.149257,28.7696326 50.7450565,27.6964619 46.7131675,25.9337155 L44.503095,24.9859222 C38.1237506,22.2694121 33.8857872,18.8663116 33.8857872,11.6720377 C33.8857872,5.04494725 38.9375948,0 46.8326308,0 C52.4533828,0 56.4942316,1.95529021 59.4061514,7.07486685 L52.5220742,11.4929272 C51.0063826,8.77641711 49.3712276,7.70623155 46.8326308,7.70623155 C44.2432621,7.70623155 42.602134,9.34807829 42.602134,11.4929272 C42.602134,14.1437634 44.2447554,15.2169341 48.0377177,16.8587808 L50.2477902,17.8050816 C57.7590501,21.0245938 62,24.3067947 62,31.6861495 C62,39.6416432 55.7475854,44 47.3508032,44 C39.1406826,44 33.8365086,40.0894196 31.2411667,34.9638726 L38.4253956,30.7920893 Z M7.19617525,31.5577869 C8.58493702,34.020557 9.84826224,36.1027172 12.8856186,36.1027172 C15.790072,36.1027172 17.6223416,34.9668578 17.6223416,30.55029 L17.6223416,0.504494725 L26.4626316,0.504494725 L26.4626316,30.6696971 C26.4626316,39.8192612 21.0957393,43.9835815 13.2619283,43.9835815 C6.18372311,43.9835815 2.08463595,40.3222633 0,35.9124122 L7.19617525,31.5577869 Z" id="Shape"></path>
            </g>
        </g>
    </g>
</svg>
