<svg xmlns="http://www.w3.org/2000/svg"
	xmlns:xlink="http://www.w3.org/1999/xlink" width="229" height="229" viewBox="0 0 229 229">
	<defs>
		<linearGradient id="linear-gradient" x1="0.5" x2="0.5" y2="1" gradientUnits="objectBoundingBox">
			<stop offset="0" stop-color="#b4ffdf"/>
			<stop offset="1" stop-color="#00227e"/>
		</linearGradient>
	</defs>
	<g id="Group_1" data-name="Group 1" transform="translate(-935 -358)">
		<circle id="Ellipse_1" data-name="Ellipse 1" cx="114.5" cy="114.5" r="114.5" transform="translate(935 358)" fill="url(#linear-gradient)"/>
		<g id="Icon_ionic-ios-boat" data-name="Icon ionic-ios-boat" transform="translate(979.619 399.463)">
			<path id="Path_1" data-name="Path 1" d="M91.109,29.672c-8.639,3.033-21.926,4.913-31.686,4.913s-23.047-1.879-31.686-4.913A64.69,64.69,0,0,1,7.2,41.608a.663.663,0,0,0,.3,1.286,138.287,138.287,0,0,0,20.245-3.957C35.321,41.9,49.73,43.52,59.424,43.52s24.432-1.253,31.686-4.583a130.4,130.4,0,0,0,20.442,3.99.663.663,0,0,0,.3-1.286A70.19,70.19,0,0,1,91.109,29.672Z" transform="translate(10.358 97.017)" fill="#fff"/>
			<path id="Path_2" data-name="Path 2" d="M132.362,40.866h0L70.969,12.675a2.59,2.59,0,0,0-2.209,0L7.4,40.866h0a5.957,5.957,0,0,0-3.462,5.407,6.127,6.127,0,0,0,.429,2.209L22.4,93.291c9.067,0,18.695-7.254,18.695-7.254C47.031,89,58.6,91.675,67.243,92.17c.923.066,1.813.066,2.638.066s1.715-.033,2.638-.066c8.639-.495,20.212-3.132,26.147-6.133,0,0,9.628,7.254,18.695,7.254L135.4,48.482a6.127,6.127,0,0,0,.429-2.209A5.957,5.957,0,0,0,132.362,40.866ZM55.373,49.109c-2.176,0-3.957-3.231-3.957-7.254S53.2,34.6,55.373,34.6s3.957,3.231,3.957,7.254S57.549,49.109,55.373,49.109Zm29.015,0c-2.176,0-3.957-3.231-3.957-7.254s1.78-7.254,3.957-7.254,3.957,3.231,3.957,7.254S86.564,49.109,84.388,49.109Z" transform="translate(0 33.398)" fill="#fff"/>
			<path id="Path_3" data-name="Path 3" d="M102.776,29.423V29.39c-1.846-8.77-5.77-15.464-13.156-15.464H78.212l-.659-2.638A10.552,10.552,0,0,0,67.331,3.375H48.537a10.544,10.544,0,0,0-10.221,7.946l-.659,2.6H26.314c-7.551,0-11.573,6.825-13.123,15.5l-6,31.917A1.324,1.324,0,0,0,9.037,62.79l8.342-3.825a1.327,1.327,0,0,0,.758-.956l5.341-28.224c.824-3.528,2.407-5.275,5.308-5.275H87.18c2.934,0,4.319,1.649,5.308,5.275L97.83,58.009a1.255,1.255,0,0,0,.758.956l8.375,3.858a1.315,1.315,0,0,0,1.846-1.451Z" transform="translate(11.914 0)" fill="#fff"/>
		</g>
	</g>
</svg>
