<?xml version="1.0" standalone="no"?>
<!DOCTYPE svg PUBLIC "-//W3C//DTD SVG 1.1//EN" "http://www.w3.org/Graphics/SVG/1.1/DTD/svg11.dtd">
<svg xmlns="http://www.w3.org/2000/svg">
<defs >
<font id="Overpass" horiz-adv-x="565" ><font-face
    font-family="Overpass"
    units-per-em="1000"
    panose-1="0 0 5 0 0 0 0 0 0 0"
    ascent="982"
    descent="-284"
    alphabetic="0" />
<glyph unicode=" " glyph-name="space" horiz-adv-x="235" />
<glyph unicode="!" glyph-name="exclam" horiz-adv-x="273" d="M123 193L94 493V712H182V493L152 193H123ZM166 -13T137 -13T88 7T68 55T88 103T137 124T186 104T206 55Q206 28 186 8Z" />
<glyph unicode="&quot;" glyph-name="quotedbl" horiz-adv-x="403" d="M53 700H161L142 427H71L53 700ZM241 700H350L331 427H260L241 700Z" />
<glyph unicode="#" glyph-name="numbersign" horiz-adv-x="683" d="M138 0L168 197H50L62 271H179L205 443H91L102 516H216L245 700H323L295 516H436L464 700H543L514 516H633L622 443H503L477 271H592L581 197H466L436 0H357L387 197H247L217 0H138ZM258 271H398L425
443H284L258 271Z" />
<glyph unicode="$" glyph-name="dollar" horiz-adv-x="588" d="M249 -98V-8Q179 3 129 44T58 144L140 174Q161 126 202 99T299 71Q361 71 396 101T431 188Q431 242 391 275T278 336Q233 353 206 366T145 404T95 461T79 539Q79 604 124 651T249 709V789H337V708Q396
698 435 666T489 587L409 560Q378 630 284 630Q230 630 200 606T170 539Q170 516 181 498T215 464T259 440T316 416Q360 399 389 384T453 343T504 278T522 190Q522 106 471 54T337 -9V-98H249Z" />
<glyph unicode="%" glyph-name="percent" horiz-adv-x="870" d="M213 356Q131 356 92 409T52 534Q52 603 92 657T213 712T333 660T373 534Q373 491 359 453T307 386T213 356ZM238 -12H154L632 712H716L238 -12ZM213 425Q254 425 276 456T299 534Q299 584 277 613T213
643Q170 643 149 613T127 534Q127 485 148 455T213 425ZM657 -12Q576 -12 537 41T497 166Q497 234 536 289T657 344Q739 344 778 292T818 166Q818 123 804 85T752 18T657 -12ZM615 57T657 57T721 88T743 166Q743 216 721 245T657 275T593 245T571 166Q571 117 593
87Z" />
<glyph unicode="&amp;" glyph-name="ampersand" horiz-adv-x="677" d="M255 -12Q165 -12 110 41T54 181Q54 254 96 303T216 396Q172 451 154 485T136 560Q136 630 184 671T304 712Q375 712 421 669T468 558Q468 502 435 461T338 380L469 223Q493 275 497 329H580Q576
238 527 154L656 0H543L474 83Q384 -12 255 -12ZM301 635Q264 635 242 615T219 560Q219 543 229 522T252 485T290 438Q385 493 385 552Q385 590 361 612T301 635ZM269 69Q353 69 421 147L264 337Q203 299 173 265T143 186Q143 134 178 102T269 69Z" />
<glyph unicode="&apos;" glyph-name="quotesingle" horiz-adv-x="214" d="M53 700H161L142 427H71L53 700Z" />
<glyph unicode="(" glyph-name="parenleft" horiz-adv-x="343" d="M200 -130Q78 30 78 284Q78 553 211 712H295Q252 660 208 545T164 284Q164 183 189 88T237 -51T284 -130H200Z" />
<glyph unicode=")" glyph-name="parenright" horiz-adv-x="343" d="M59 -130Q83 -95 105 -52T153 87T179 284Q179 429 135 544T48 712H132Q265 553 265 284Q265 30 143 -130H59Z" />
<glyph unicode="*" glyph-name="asterisk" horiz-adv-x="533" d="M293 390L266 464L239 390L171 297L106 346L172 437L229 486L157 488L54 522L80 600L180 567L243 523L226 597V710H307V597L288 523L352 567L453 600L479 522L375 488L302 486L361 437L427 346L362
297L293 390Z" />
<glyph unicode="+" glyph-name="plus" horiz-adv-x="645" d="M366 301V108H278V301H88V385H278V578H366V385H558V301H366Z" />
<glyph unicode="," glyph-name="comma" horiz-adv-x="225" d="M57 -126Q75 -110 93 -80T113 -16Q83 -14 63 4T43 51Q43 82 62 102T110 122Q142 122 164 100T186 34Q186 -21 158 -67T86 -141L57 -126Z" />
<glyph unicode="-" glyph-name="hyphen" horiz-adv-x="399" d="M83 256V340H317V256H83Z" />
<glyph unicode="." glyph-name="period" horiz-adv-x="225" d="M141 -13T112 -13T63 7T43 55Q43 83 63 103T112 124T161 103T182 55T162 8Z" />
<glyph unicode="/" glyph-name="slash" horiz-adv-x="490" d="M-8 -130L386 712H472L79 -130H-8Z" />
<glyph unicode="0" glyph-name="zero" horiz-adv-x="639" d="M320 -12Q253 -12 203 19T127 104T88 219T75 350Q75 414 86 472T123 587T199 678T320 712Q387 712 437 681T513 595T552 480T565 350Q565 286 554 228T516 113T440 22T320 -12ZM320 70Q365 70 397 95T444
164T466 252T473 350Q473 406 466 453T443 541T395 607T320 631Q274 631 242 606T194 537T172 448T165 350Q165 294 172 248T196 159T244 94T320 70Z" />
<glyph unicode="1" glyph-name="one" horiz-adv-x="373" d="M157 0V558H40V617Q153 617 181 700H244V0H157Z" />
<glyph unicode="2" glyph-name="two" horiz-adv-x="612" d="M70 0Q70 66 89 120T144 216T216 285T302 342Q348 370 374 389T422 442T445 512Q445 563 408 597T308 631Q192 631 159 528L81 563Q102 629 164 670T311 712Q415 712 475 657T535 510Q535 474 524 443T498
390T453 344T402 306T341 268Q267 225 225 183T171 85H541V0H70Z" />
<glyph unicode="3" glyph-name="three" horiz-adv-x="602" d="M291 -12Q114 -12 52 151L133 184Q180 71 291 71Q357 71 399 103T441 196Q441 254 404 288T296 323H246V405H291Q346 405 380 435T414 516Q414 568 381 599T294 630Q199 630 155 536L74 567Q99 631
155 671T294 712Q385 712 445 659T505 526Q505 478 482 437T415 374Q470 352 501 307T532 199Q532 104 463 46T291 -12Z" />
<glyph unicode="4" glyph-name="four" horiz-adv-x="621" d="M383 0V174H25V226L388 700H470V252H569V174H470V0H383ZM383 252V577L139 252H383Z" />
<glyph unicode="5" glyph-name="five" horiz-adv-x="621" d="M291 -12Q213 -12 155 11T67 65L119 132Q192 68 290 68Q364 68 412 113T461 225Q461 291 422 332T318 373Q228 373 177 316L91 346L132 700H506V619H208L181 408Q241 456 328 456Q428 456 490 391T552
231Q552 129 480 59T291 -12Z" />
<glyph unicode="6" glyph-name="six" horiz-adv-x="597" d="M302 -12Q188 -12 127 63T65 259Q65 425 164 551T435 712V635Q340 613 266 544T170 380Q220 437 323 437Q413 437 474 373T535 217Q535 118 469 53T302 -12ZM301 70Q366 70 407 109T448 212Q448 277
408 316T301 356Q236 356 195 317T153 212Q153 149 195 110T301 70Z" />
<glyph unicode="7" glyph-name="seven" horiz-adv-x="522" d="M175 0Q177 177 225 324T383 619H35V700H480V621Q417 549 373 464T306 294T274 140T264 0H175Z" />
<glyph unicode="8" glyph-name="eight" horiz-adv-x="611" d="M305 -12Q202 -12 136 48T70 201Q70 265 103 313T190 385Q147 407 124 445T101 530Q101 607 158 659T305 712T452 660T510 530Q510 429 420 385Q475 361 508 313T541 201Q541 109 475 49T305 -12ZM253
420T305 420T389 449T422 523Q422 572 390 601T305 631Q254 631 222 602T189 523Q189 479 221 450ZM241 70T305 70T410 107T451 208Q451 265 410 306T305 347T201 307T160 208Q160 145 200 108Z" />
<glyph unicode="9" glyph-name="nine" horiz-adv-x="597" d="M174 -12V69Q269 86 338 153T425 324Q376 264 272 264Q180 264 119 327T57 484Q57 583 124 647T295 712Q410 712 469 637T528 441Q528 264 434 138T174 -12ZM292 345Q357 345 397 384T438 488Q438 549
397 588T292 628Q227 628 187 589T146 488Q146 423 185 384T292 345Z" />
<glyph unicode=":" glyph-name="colon" horiz-adv-x="225" d="M141 347T112 347T63 367T43 415Q43 443 63 463T112 484T161 463T182 415T162 368ZM141 -13T112 -13T63 7T43 55Q43 83 63 103T112 124T161 103T182 55T162 8Z" />
<glyph unicode=";" glyph-name="semicolon" horiz-adv-x="225" d="M141 347T112 347T63 367T43 415T63 463T112 484T161 464T181 415Q181 388 161 368ZM57 -126Q75 -110 91 -80T110 -15Q82 -14 63 4T43 51Q43 82 62 102T110 122Q142 122 164 100T186 34Q186 -21
158 -67T86 -141L57 -126Z" />
<glyph unicode="&lt;" glyph-name="less" horiz-adv-x="645" d="M558 114L88 304V381L558 572V486L197 343L558 201V114Z" />
<glyph unicode="=" glyph-name="equal" horiz-adv-x="645" d="M88 389V473H558V389H88ZM88 213V296H558V213H88Z" />
<glyph unicode="&gt;" glyph-name="greater" horiz-adv-x="645" d="M558 304L88 114V200L448 343L88 486V572L558 381V304Z" />
<glyph unicode="?" glyph-name="question" horiz-adv-x="514" d="M203 180V202Q203 255 221 295T266 359T319 406T364 457T383 522Q383 569 350 600T259 631Q192 631 155 594T117 495H32Q32 592 94 652T259 712Q359 712 415 658T471 521Q471 474 453 438T408 379T355
333T310 277T291 201V180H203ZM274 -13T245 -13T196 7T176 55Q176 83 196 103T245 124T294 103T315 55T295 8Z" />
<glyph unicode="@" glyph-name="at" horiz-adv-x="809" d="M408 -12Q253 -12 154 81T55 336Q55 499 162 605T422 712Q570 712 662 627T754 412Q754 304 703 233T578 161Q544 161 522 179T493 229Q451 155 371 155Q308 155 267 203T226 326Q226 405 278 469T410
533Q491 533 515 456L526 520H602L566 319Q559 277 559 264Q559 226 590 226Q627 226 654 281T682 414Q682 517 611 578T426 640Q295 640 215 554T134 335Q134 212 208 136T412 60Q488 60 545 77L527 -1Q480 -12 408 -12ZM388 228Q436 228 466 268T496 363Q496
406 474 432T417 459Q368 459 338 420T307 325Q307 281 329 255T388 228Z" />
<glyph unicode="A" glyph-name="A" horiz-adv-x="679" d="M539 0L479 171H201L142 0H51L299 700H380L628 0H539ZM452 248L362 507Q345 556 340 578Q329 539 318 507L227 248H452Z" />
<glyph unicode="B" glyph-name="B" horiz-adv-x="656" d="M98 700H346Q461 700 512 647T564 515Q564 467 537 429T461 369Q522 350 555 306T589 201Q589 163 577 129T540 65T469 18T362 0H98V700ZM329 403Q402 403 440 432T478 514Q478 621 351 621H185V403H329ZM372
80Q443 80 473 113T503 195Q503 324 340 324H185V80H372Z" />
<glyph unicode="C" glyph-name="C" horiz-adv-x="647" d="M358 -12Q282 -12 224 19T133 103T84 218T68 350Q68 419 84 481T134 596T225 680T358 712Q522 712 584 586L506 546Q478 588 445 609T358 631Q287 631 240 586T176 481T158 350Q158 235 209 153T358 70T510
159L590 129Q561 65 503 27T358 -12Z" />
<glyph unicode="D" glyph-name="D" horiz-adv-x="682" d="M98 700H289Q375 700 440 670T542 589T596 478T614 350Q614 285 598 227T546 116T443 32T285 0H98V700ZM296 81Q358 81 404 104T476 168T512 254T524 350Q524 422 503 481T431 580T307 620H185V81H296Z" />
<glyph unicode="E" glyph-name="E" horiz-adv-x="599" d="M98 0V700H514V618H185V403H402V321H185V83H536V0H98Z" />
<glyph unicode="F" glyph-name="F" horiz-adv-x="562" d="M98 0V700H519V618H185V403H406V321H185V0H98Z" />
<glyph unicode="G" glyph-name="G" horiz-adv-x="688" d="M365 -12Q288 -12 230 18T137 101T85 216T68 350Q68 420 86 483T139 598T232 681T365 712Q454 712 505 679T592 589L514 544Q486 585 452 607T365 630Q320 630 284 613T225 569T187 504T165 429T158 350Q158
232 210 152T365 71Q436 71 479 115T522 232V260H395V340H613V256Q613 129 544 59T365 -12Z" />
<glyph unicode="H" glyph-name="H" horiz-adv-x="700" d="M515 0V322H185V0H98V700H185V404H515V700H602V0H515Z" />
<glyph unicode="I" glyph-name="I" horiz-adv-x="287" d="M100 0V700H187V0H100Z" />
<glyph unicode="J" glyph-name="J" horiz-adv-x="546" d="M230 -12Q82 -12 28 114L100 151Q121 108 150 89T231 70Q364 70 364 227V700H451V230Q451 161 431 112T377 37T307 0T230 -12Z" />
<glyph unicode="K" glyph-name="K" horiz-adv-x="660" d="M512 0L304 385L185 239V0H98V700H185V357L458 700H556L363 458L613 0H512Z" />
<glyph unicode="L" glyph-name="L" horiz-adv-x="559" d="M98 0V700H185V84H529V0H98Z" />
<glyph unicode="M" glyph-name="M" horiz-adv-x="803" d="M706 0H619V430Q619 471 621 507Q611 479 590 428L398 -12L212 430Q188 488 182 506Q185 479 185 430V0H98V700H180L383 229L401 182Q405 194 419 229L623 700H706V0Z" />
<glyph unicode="N" glyph-name="N" horiz-adv-x="708" d="M610 0H526L211 500Q193 529 183 549Q185 519 185 500V0H98V700H186L496 202Q512 176 525 150Q523 186 523 201V700H610V0Z" />
<glyph unicode="O" glyph-name="O" horiz-adv-x="730" d="M365 -12Q286 -12 227 19T134 104T84 219T68 350T84 480T133 595T226 680T365 712Q429 712 480 691T565 635T621 552T653 454T663 350T654 246T622 148T566 65T481 9T365 -12ZM310 70T365 70T462 95T527
163T561 252T572 350Q572 424 554 484T487 588T365 631Q310 631 269 606T204 538T170 448T158 350Q158 296 169 248T203 159T268 94Z" />
<glyph unicode="P" glyph-name="P" horiz-adv-x="630" d="M98 0V700H366Q427 700 472 682T543 634T580 567T592 490Q592 407 536 344T366 281H185V0H98ZM372 362Q440 362 472 400T505 490Q505 541 474 580T372 619H185V362H372Z" />
<glyph unicode="Q" glyph-name="Q" horiz-adv-x="730" d="M365 -12Q286 -12 227 19T134 104T84 219T68 350T84 480T133 595T226 680T365 712Q429 712 480 691T565 635T621 552T653 454T663 350Q663 156 556 57L609 -21L545 -66L491 14Q436 -12 365 -12ZM365 70Q410
70 442 86L392 161L458 206L506 134Q572 213 572 350Q572 424 554 484T487 588T365 631Q310 631 269 606T204 538T170 448T158 350Q158 296 169 248T203 159T268 94T365 70Z" />
<glyph unicode="R" glyph-name="R" horiz-adv-x="665" d="M98 0V700H374Q490 700 542 643T595 501Q595 432 555 378T432 306L582 0H484L340 300H185V0H98ZM185 381H376Q444 381 475 415T507 499Q507 547 477 583T376 619H185V381Z" />
<glyph unicode="S" glyph-name="S" horiz-adv-x="599" d="M302 -12Q213 -12 148 31T58 144L140 174Q162 126 205 98T304 70Q368 70 405 100T442 188Q442 243 401 276T284 336Q248 349 225 359T171 387T122 425T92 474T79 539Q79 612 137 662T294 712Q375 712 429
678T499 587L419 560Q405 591 371 611T288 631Q233 631 201 607T169 539Q169 516 180 497T216 463T262 439T320 416Q366 399 396 384T461 342T514 278T532 190Q532 96 468 42T302 -12Z" />
<glyph unicode="T" glyph-name="T" horiz-adv-x="583" d="M335 617V0H248V617H53V700H530V617H335Z" />
<glyph unicode="U" glyph-name="U" horiz-adv-x="689" d="M344 -12Q93 -12 93 263V700H180V263Q180 156 224 113T344 70T464 113T509 263V700H596V263Q596 -12 344 -12Z" />
<glyph unicode="V" glyph-name="V" horiz-adv-x="652" d="M288 0L48 700H141L308 194Q326 133 329 123Q333 142 349 194L511 700H604L365 0H288Z" />
<glyph unicode="W" glyph-name="W" horiz-adv-x="840" d="M193 0L50 700H141L227 244Q236 199 240 169Q240 170 259 243L383 700H452L577 244Q589 199 593 176Q597 202 606 245L701 700H790L638 0H569L434 478Q419 533 416 547Q411 520 399 478L264 0H193Z" />
<glyph unicode="X" glyph-name="X" horiz-adv-x="606" d="M462 0L301 283L144 0H47L255 362L62 700H160L304 447L446 700H542L350 367L560 0H462Z" />
<glyph unicode="Y" glyph-name="Y" horiz-adv-x="641" d="M278 0V275L40 700H138L321 360L506 700H601L365 277V0H278Z" />
<glyph unicode="Z" glyph-name="Z" horiz-adv-x="650" d="M63 0V67L469 617H86V700H582V633L178 83H582V0H63Z" />
<glyph unicode="[" glyph-name="bracketleft" horiz-adv-x="376" d="M108 -130V712H328V632H195V-50H328V-130H108Z" />
<glyph unicode="\" glyph-name="backslash" horiz-adv-x="490" d="M386 -130L-8 712H79L472 -130H386Z" />
<glyph unicode="]" glyph-name="bracketright" horiz-adv-x="376" d="M268 -130H48V-50H181V632H48V712H268V-130Z" />
<glyph unicode="^" glyph-name="asciicircum" horiz-adv-x="645" d="M471 356L323 603L175 356H85L281 712H363L560 356H471Z" />
<glyph unicode="_" glyph-name="underscore" horiz-adv-x="515" d="M3 -177V-94H513V-177H3Z" />
<glyph unicode="`" glyph-name="grave" horiz-adv-x="368" d="M210 576L32 732H156L298 576H210Z" />
<glyph unicode="a" glyph-name="a" horiz-adv-x="526" d="M376 0V47Q313 -12 231 -12Q150 -12 102 32T53 160T108 286T244 329Q318 329 376 296V332Q376 396 348 421T265 447Q188 447 116 396L91 469Q173 523 276 523Q458 523 458 339V0H376ZM244 65Q319 65 376
132V220Q321 254 256 254Q203 254 169 230T135 160Q135 117 163 91T244 65Z" />
<glyph unicode="b" glyph-name="b" horiz-adv-x="562" d="M301 -12Q228 -12 170 44V0H83V681L170 722V467Q221 523 298 523Q394 523 452 452T510 256Q510 127 455 58T301 -12ZM289 69Q354 69 387 118T421 256Q421 347 388 395T289 443Q249 443 217 422T170 375V138Q189
106 221 88T289 69Z" />
<glyph unicode="c" glyph-name="c" horiz-adv-x="500" d="M265 -12Q167 -12 110 58T53 255T110 452T269 523Q405 523 448 404L366 374Q340 442 270 442Q206 442 174 393T142 255Q142 167 174 119T267 70Q347 70 371 146L452 119Q433 56 385 22T265 -12Z" />
<glyph unicode="d" glyph-name="d" horiz-adv-x="562" d="M264 -12Q167 -12 110 60T53 256Q53 381 110 452T264 523Q339 523 393 475V681L480 722V0H393V40Q343 -12 264 -12ZM276 69Q352 69 393 138V378Q352 443 276 443Q211 443 176 395T141 256Q141 175 177
122T276 69Z" />
<glyph unicode="e" glyph-name="e" horiz-adv-x="538" d="M280 -12Q176 -12 115 62T53 256Q53 381 115 452T280 523Q372 523 431 462T491 280Q491 252 488 222H142Q147 152 185 110T282 67Q346 67 392 113L445 54Q379 -12 280 -12ZM141 296H403Q402 375 366 410T280
446Q221 446 183 409T141 296Z" />
<glyph unicode="f" glyph-name="f" horiz-adv-x="333" d="M199 435V0H112V435H33V511H112V596Q112 658 144 685T223 712Q273 712 318 688V615Q277 634 245 634Q217 634 208 620T199 581V511H318V435H199Z" />
<glyph unicode="g" glyph-name="g" horiz-adv-x="563" d="M240 -207L198 -139Q309 -133 351 -101T394 -12V50Q349 -12 262 -12Q172 -12 113 58T53 256Q53 380 111 451T265 523Q345 523 394 469V511H481V21Q481 -96 419 -148T240 -207ZM280 69Q312 69 343 88T394
141V375Q376 405 343 424T280 443Q212 443 177 395T141 256Q141 169 179 119T280 69Z" />
<glyph unicode="h" glyph-name="h" horiz-adv-x="563" d="M83 0V682L170 722V458Q217 523 302 523Q392 523 438 469T485 294V0H398V309Q398 378 369 410T288 443Q170 443 170 311V0H83Z" />
<glyph unicode="i" glyph-name="i" horiz-adv-x="254" d="M150 604T127 604T89 620T73 658Q73 681 89 697T127 714Q150 714 166 698T182 658T166 620ZM84 0V511H171V0H84Z" />
<glyph unicode="j" glyph-name="j" horiz-adv-x="254" d="M151 604T128 604T89 619T73 658T89 697T128 714T166 698T182 658T167 620ZM-6 -214L-47 -148Q27 -136 55 -110T84 -36V511H171V-4Q171 -97 133 -142Q85 -201 -6 -214Z" />
<glyph unicode="k" glyph-name="k" horiz-adv-x="531" d="M498 0H403L245 309L170 231V0H83V681L170 722V335L336 511H440L306 372L498 0Z" />
<glyph unicode="l" glyph-name="l" horiz-adv-x="262" d="M88 0V681L175 722V0H88Z" />
<glyph unicode="m" glyph-name="m" horiz-adv-x="846" d="M682 0V310Q682 443 579 443Q530 443 500 406T469 307V0H382V310Q382 443 280 443Q229 443 200 408T170 311V0H83V511H170V463Q215 523 304 523Q347 523 383 504T441 448Q490 523 589 523Q669 523 719
474T769 335V0H682Z" />
<glyph unicode="n" glyph-name="n" horiz-adv-x="563" d="M398 0V309Q398 378 369 410T288 443Q170 443 170 311V0H83V511H170V459Q217 523 302 523Q392 523 438 469T485 294V0H398Z" />
<glyph unicode="o" glyph-name="o" horiz-adv-x="558" d="M383 -12T279 -12T114 59T53 255T114 451T279 523T444 452T505 256T444 60ZM214 69T279 69T380 118T417 256Q417 343 381 393T279 443T178 394T141 255Q141 168 177 119Z" />
<glyph unicode="p" glyph-name="p" horiz-adv-x="564" d="M301 -12Q221 -12 170 48V-161L83 -202V511H170V468Q225 523 301 523Q398 523 455 451T512 256Q512 131 454 60T301 -12ZM290 69Q354 69 388 117T423 256Q423 341 388 392T290 443Q209 443 170 374V138Q223
69 290 69Z" />
<glyph unicode="q" glyph-name="q" horiz-adv-x="563" d="M265 -12Q168 -12 111 59T53 255Q53 379 109 451T262 523Q333 523 394 468V511H481V-161L394 -200V48Q341 -12 265 -12ZM273 69Q340 69 394 139V374Q353 443 273 443Q212 443 177 390T141 255Q141 165
175 117T273 69Z" />
<glyph unicode="r" glyph-name="r" horiz-adv-x="389" d="M83 0V511H170V444Q206 523 291 523Q339 523 370 497L357 415Q325 437 284 437Q239 437 205 402T170 288V0H83Z" />
<glyph unicode="s" glyph-name="s" horiz-adv-x="469" d="M234 -12Q179 -12 130 11T49 74L111 127Q168 66 236 66Q279 66 305 82T331 131Q331 155 312 174T273 203T214 228Q136 257 96 293T56 388Q56 450 104 486T228 523Q335 523 400 446L340 396Q293 445 227
445Q188 445 165 430T142 388Q142 373 149 361T176 337T207 321T250 303Q331 274 373 237T416 133Q416 65 367 27T234 -12Z" />
<glyph unicode="t" glyph-name="t" horiz-adv-x="374" d="M221 -12Q113 -12 113 110V435H30V511H113V680L200 722V511H326V435H200V139Q200 105 211 87T253 69Q287 69 329 96L319 11Q275 -12 221 -12Z" />
<glyph unicode="u" glyph-name="u" horiz-adv-x="563" d="M393 0V49Q346 -12 264 -12Q171 -12 125 42T78 216V511H165V203Q165 134 194 102T275 69Q393 69 393 201V511H480V0H393Z" />
<glyph unicode="v" glyph-name="v" horiz-adv-x="512" d="M220 0L33 511H121L242 170Q255 132 258 120Q261 132 274 170L393 511H480L293 0H220Z" />
<glyph unicode="w" glyph-name="w" horiz-adv-x="715" d="M169 0L38 511H124L202 168Q203 162 207 143T213 114Q215 128 226 168L322 511H394L490 168L504 112Q506 121 509 140T515 168L592 511H678L547 0H469L376 303Q362 348 357 370Q347 328 339 303L247 0H169Z" />
<glyph unicode="x" glyph-name="x" horiz-adv-x="516" d="M38 0L209 266L51 511H148L229 387Q252 350 258 338Q282 378 288 387L368 511H466L307 266L479 0H381L287 145Q276 162 258 194Q249 176 229 145L135 0H38Z" />
<glyph unicode="y" glyph-name="y" horiz-adv-x="530" d="M144 -194L222 13L33 511H120L247 163Q254 146 263 114Q272 146 279 163L408 511H497L232 -194H144Z" />
<glyph unicode="z" glyph-name="z" horiz-adv-x="505" d="M63 0V64L329 434H83V511H438V449L171 78H437V0H63Z" />
<glyph unicode="{" glyph-name="braceleft" horiz-adv-x="372" d="M330 -130Q237 -128 184 -69T130 102V157Q130 201 112 228T62 255H53V329H62Q94 329 112 355T130 426V480Q130 592 183 651T330 712V637Q274 635 246 600T218 499V438Q218 361 194 330T116 291Q169
285 193 254T218 144V84Q218 -51 330 -55V-130Z" />
<glyph unicode="|" glyph-name="bar" horiz-adv-x="272" d="M93 -378V1062H180V-378H93Z" />
<glyph unicode="}" glyph-name="braceright" horiz-adv-x="372" d="M43 -130V-55Q154 -50 154 84V144Q154 223 178 254T256 291Q203 298 179 329T154 438V499Q154 632 43 637V712Q135 710 188 651T242 480V426Q242 382 260 356T310 329H320V255H310Q279 255 261
228T242 157V102Q242 -10 189 -69T43 -130Z" />
<glyph unicode="~" glyph-name="asciitilde" horiz-adv-x="645" d="M428 271Q383 271 314 301T215 331Q185 331 167 315T146 271H89Q89 333 120 374T218 415Q264 415 333 385T430 354Q460 354 478 371T499 415H557Q557 353 526 312T428 271Z" />
<glyph unicode="&#xa0;" glyph-name="uni00A0" horiz-adv-x="235" />
<glyph unicode="&#xa1;" glyph-name="exclamdown" horiz-adv-x="271" d="M166 387T137 387T88 407T68 455T88 503T137 523T186 503T206 455T186 408ZM180 -200H92V18L122 317H150L180 18V-200Z" />
<glyph unicode="&#xa2;" glyph-name="cent" horiz-adv-x="515" d="M221 -12V88Q144 105 101 173T58 350T101 525T221 611V712H306V615Q418 602 455 497L371 467Q346 533 279 533Q215 533 181 485T147 350T180 215T274 167Q311 167 337 187T374 243L457 216Q422
97 306 85V-12H221Z" />
<glyph unicode="&#xa3;" glyph-name="sterling" horiz-adv-x="597" d="M88 0V92Q132 112 152 164T176 272V292H83V366H156Q154 370 148 382T140 400T132 417T125 438T119 459T115 486T114 515Q114 597 173 654T342 712Q459 712 548 645L514 563Q491 582 476 593T423
616T342 629Q275 629 241 595T206 515Q206 478 229 425T254 366H419V292H268V274Q263 163 178 83H559V0H88Z" />
<glyph unicode="&#xa4;" glyph-name="currency" horiz-adv-x="633" d="M316 86Q233 86 175 127L109 60L44 126L113 196Q80 252 80 333Q80 412 113 472L44 541L106 605L173 538Q234 581 316 581Q399 581 458 539L524 605L589 538L522 471Q554 410 554 333Q554 251
519 193L589 123L527 60L459 128Q400 86 316 86ZM316 170Q383 170 424 215T466 333Q466 404 425 451T316 498Q251 498 210 451T168 333Q168 261 209 216T316 170Z" />
<glyph unicode="&#xa5;" glyph-name="yen" horiz-adv-x="566" d="M327 319H474V244H326V178H474V103H326V0H239V103H84V178H239V244H84V319H237L23 700H121L282 401L448 700H543L327 319Z" />
<glyph unicode="&#xa6;" glyph-name="brokenbar" horiz-adv-x="272" d="M93 366V825H180V366H93ZM93 -225V234H180V-225H93Z" />
<glyph unicode="&#xa7;" glyph-name="section" horiz-adv-x="533" d="M270 -120Q199 -120 143 -95T58 -31L122 26Q179 -36 268 -36Q385 -36 385 43Q385 62 376 78T344 108T307 130T258 151T213 169Q176 185 158 194T116 222T81 263T70 319Q70 356 89 384T141 427Q70
470 70 561Q70 631 125 671T263 712Q390 712 456 631L389 578Q342 627 263 627Q161 627 161 558Q161 546 166 535T183 514T206 497T240 480T275 465T317 449Q348 437 365 430T407 407T444 377T466 337T476 283Q476 206 415 176Q476 129 476 46Q476 -33 422 -76T270
-120ZM340 215Q385 234 385 277Q385 293 376 307T356 330T320 350T280 367T231 385Q198 380 180 364T161 322Q161 311 166 301T181 283T203 268T232 254T265 241T302 228T340 215Z" />
<glyph unicode="&#xa8;" glyph-name="dieresis" horiz-adv-x="368" d="M121 599T98 599T59 615T43 654T59 693T98 709T137 693T153 654T137 615ZM294 599T271 599T232 615T216 654T232 693T271 709T310 693T326 654T310 615Z" />
<glyph unicode="&#xa9;" glyph-name="copyright" horiz-adv-x="859" d="M584 -12T430 -12T172 92T68 350T172 608T430 712T688 608T792 350T688 92ZM303 51T430 51T640 136T724 350T641 563T430 649T219 564T135 350T219 137ZM435 135Q347 135 302 195T256 353Q256
446 303 508T439 571Q493 571 531 544T586 471L522 442Q494 502 434 502Q328 502 328 353Q328 203 436 203Q503 203 526 269L588 246Q571 194 531 165T435 135Z" />
<glyph unicode="&#xaa;" glyph-name="ordfeminine" horiz-adv-x="450" d="M309 283V313Q261 273 194 273Q126 273 85 310T43 415Q43 482 92 518T206 555Q262 555 309 533V549Q309 600 288 621T217 642Q148 642 100 604L78 671Q133 712 227 712Q259 712 283 707T333
687T373 639T387 556V283H309ZM206 342Q233 342 262 355T309 385V464Q267 486 217 486Q178 486 151 469T124 415Q124 381 146 362T206 342Z" />
<glyph unicode="&#xab;" glyph-name="guillemotleft" horiz-adv-x="515" d="M190 0L38 256L190 511H285L133 256L285 0H190ZM396 0L244 256L396 511H493L341 256L493 0H396Z" />
<glyph unicode="&#xac;" glyph-name="logicalnot" horiz-adv-x="645" d="M470 172V385H88V468H558V172H470Z" />
<glyph unicode="&#xad;" glyph-name="uni00AD" horiz-adv-x="399" d="M83 256V340H317V256H83Z" />
<glyph unicode="&#xae;" glyph-name="registered" horiz-adv-x="859" d="M584 -12T430 -12T172 92T68 350T172 608T430 712T688 608T792 350T688 92ZM303 51T430 51T640 136T724 350T641 563T430 649T219 564T135 350T219 137ZM282 138V561H469Q534 561 565 524T596
437Q596 394 571 359T500 313L599 138H519L429 309H352V138H282ZM352 372H470Q498 372 512 390T526 436Q526 460 513 477T470 495H352V372Z" />
<glyph unicode="&#xaf;" glyph-name="overscore" horiz-adv-x="368" d="M19 603V677H349V603H19Z" />
<glyph unicode="&#xb0;" glyph-name="degree" horiz-adv-x="409" d="M277 452T205 452T83 501T32 622Q32 695 82 743T205 792T327 744T377 622Q377 550 327 501ZM205 534Q241 534 264 559T288 622Q288 661 265 685T205 710T145 685T120 622Q120 585 145 560T205 534Z" />
<glyph unicode="&#xb1;" glyph-name="plusminus" horiz-adv-x="645" d="M366 363V202H278V363H88V447H278V608H366V447H558V363H366ZM88 0V84H558V0H88Z" />
<glyph unicode="&#xb2;" glyph-name="uni00B2" horiz-adv-x="364" d="M33 444Q33 523 70 572T180 665Q212 684 228 702T244 750Q244 773 227 791T176 809Q113 809 99 741L33 761Q44 811 83 842T180 873Q242 873 280 839T318 747Q318 696 291 665T203 600Q135 561
114 510H317V444H33Z" />
<glyph unicode="&#xb3;" glyph-name="uni00B3" horiz-adv-x="357" d="M176 435Q120 435 81 465T23 548L92 571Q115 499 177 499Q209 499 228 516T247 563Q247 590 229 609T180 628H147V692H173Q202 692 216 709T231 751T216 792T173 809Q124 809 101 753L35 776Q53
820 90 846T176 873Q234 873 270 840T306 756Q306 730 292 705T253 666Q284 654 303 628T322 566Q322 506 282 471T176 435Z" />
<glyph unicode="&#xb4;" glyph-name="acute" horiz-adv-x="368" d="M72 576L214 732H338L160 576H72Z" />
<glyph unicode="&#xb5;" glyph-name="uni00B5" d="M396 0V50Q341 -12 265 -12Q201 -12 167 39V-159L80 -200V511H167V203Q167 126 194 98T278 69Q396 69 396 201V511H483V0H396Z" />
<glyph unicode="&#xb6;" glyph-name="paragraph" horiz-adv-x="631" d="M274 -200V277Q149 277 89 341T28 490Q28 531 40 567T78 633T149 682T257 700H543V-87L456 -127V615H362V-161L274 -200Z" />
<glyph unicode="&#xb7;" glyph-name="middot" horiz-adv-x="225" d="M141 281T112 281T63 301T43 349Q43 377 63 397T112 418T161 397T182 349T162 302Z" />
<glyph unicode="&#xb8;" glyph-name="cedilla" horiz-adv-x="368" d="M184 -237Q125 -237 90 -204L139 -170Q149 -183 176 -183Q198 -183 213 -170T228 -135Q228 -116 211 -103T170 -90Q146 -90 132 -97L116 -77L185 10H234L196 -53Q251 -53 277 -77T304 -136Q304
-180 271 -208T184 -237Z" />
<glyph unicode="&#xb9;" glyph-name="uni00B9" horiz-adv-x="200" d="M69 444V773H18V825Q69 825 86 866H140V444H69Z" />
<glyph unicode="&#xba;" glyph-name="ordmasculine" horiz-adv-x="467" d="M233 273Q145 273 94 331T43 492T94 653T233 712T372 654T424 492T373 331T233 273ZM233 348Q287 348 315 385T344 492Q344 562 316 599T233 637Q182 637 153 599T123 492Q123 424 152
386T233 348Z" />
<glyph unicode="&#xbb;" glyph-name="guillemotright" horiz-adv-x="515" d="M23 0L175 256L23 511H118L270 256L118 0H23ZM229 0L381 256L229 511H326L478 256L326 0H229Z" />
<glyph unicode="&#xbc;" glyph-name="onequarter" horiz-adv-x="680" d="M12 -12L490 712H572L94 -12H12ZM76 283V612H25V664Q77 664 94 705H148V283H76ZM526 0V97H315V139L534 423H596V163H649V97H596V0H526ZM526 163V320L407 163H526Z" />
<glyph unicode="&#xbd;" glyph-name="onehalf" horiz-adv-x="727" d="M12 -12L490 712H572L94 -12H12ZM76 283V612H25V664Q77 664 94 705H148V283H76ZM396 0Q396 79 433 128T543 221Q575 240 591 258T607 306Q607 329 590 347T539 365Q476 365 462 297L396 317Q407
367 446 398T543 429Q605 429 643 395T681 303Q681 252 654 221T566 156Q498 117 477 67H680V0H396Z" />
<glyph unicode="&#xbe;" glyph-name="threequarters" horiz-adv-x="812" d="M176 273Q120 273 81 303T23 386L92 409Q115 337 177 337Q209 337 228 354T247 401Q247 428 229 447T180 467H147V531H173Q202 531 216 548T231 590T216 631T173 648Q124 648 101 592L35
615Q53 659 90 685T176 712Q234 712 270 679T306 595Q306 569 292 544T253 505Q284 493 303 467T322 405Q322 344 282 309T176 273ZM144 -12L622 712H704L226 -12H144ZM657 0V97H446V139L666 423H728V163H781V97H728V0H657ZM657 163V320L538 163H657Z" />
<glyph unicode="&#xbf;" glyph-name="questiondown" horiz-adv-x="514" d="M298 387T269 387T220 406T200 454T220 502T269 523Q297 523 318 502T340 454T319 407ZM254 -200Q154 -200 99 -146T43 -6Q43 39 61 74T106 132T159 179T204 235T223 312V332H311V311Q311
266 298 230T264 174T221 132T177 95T144 52T130 -6Q130 -57 162 -88T254 -120Q322 -120 360 -81T398 28H486Q486 -76 422 -138T254 -200Z" />
<glyph unicode="&#xc0;" glyph-name="Agrave" horiz-adv-x="679" d="M365 765L187 921H311L453 765H365ZM539 0L479 171H201L142 0H51L299 700H380L628 0H539ZM452 248L362 507Q345 556 340 578Q329 539 318 507L227 248H452Z" />
<glyph unicode="&#xc1;" glyph-name="Aacute" horiz-adv-x="679" d="M237 765L379 921H503L325 765H237ZM539 0L479 171H201L142 0H51L299 700H380L628 0H539ZM452 248L362 507Q345 556 340 578Q329 539 318 507L227 248H452Z" />
<glyph unicode="&#xc2;" glyph-name="Acircumflex" horiz-adv-x="679" d="M445 765L340 855L235 765H152L299 921H381L527 765H445ZM539 0L479 171H201L142 0H51L299 700H380L628 0H539ZM452 248L362 507Q345 556 340 578Q329 539 318 507L227 248H452Z" />
<glyph unicode="&#xc3;" glyph-name="Atilde" horiz-adv-x="679" d="M418 784Q380 784 328 808T253 833Q233 833 220 822T206 788H161Q161 908 260 908Q298 908 350 883T425 858Q444 858 457 870T472 904H517Q517 784 418 784ZM539 0L479 171H201L142 0H51L299
700H380L628 0H539ZM452 248L362 507Q345 556 340 578Q329 539 318 507L227 248H452Z" />
<glyph unicode="&#xc4;" glyph-name="Adieresis" horiz-adv-x="679" d="M276 788T253 788T214 804T198 843T214 882T253 898T292 882T308 843T292 804ZM449 788T426 788T387 804T371 843T387 882T426 898T465 882T481 843T465 804ZM539 0L479 171H201L142 0H51L299
700H380L628 0H539ZM452 248L362 507Q345 556 340 578Q329 539 318 507L227 248H452Z" />
<glyph unicode="&#xc5;" glyph-name="Aring" horiz-adv-x="679" d="M51 0L279 644Q222 680 222 745Q222 793 257 827T341 861Q389 861 424 827T460 745Q460 713 444 686T400 644L628 0H539L479 171H201L142 0H51ZM320 691T341 691T376 706T391 745Q391 767 377
782T341 798T306 783T291 745Q291 722 305 707ZM227 248H452L362 507Q345 556 340 578Q329 539 318 507L227 248Z" />
<glyph unicode="&#xc6;" glyph-name="AE" horiz-adv-x="854" d="M-14 0L393 700H776V618H503V403H674V321H503V83H798V0H416V171H179L82 0H-14ZM223 249H416V594Q405 570 380 526L223 249Z" />
<glyph unicode="&#xc7;" glyph-name="Ccedilla" horiz-adv-x="647" d="M345 -237Q286 -237 251 -204L300 -170Q310 -183 337 -183Q359 -183 374 -170T389 -135Q389 -116 372 -103T331 -90Q307 -90 293 -97L277 -77L330 -11Q239 -3 178 52T93 183T68 350Q68 419
84 481T134 596T225 680T358 712Q522 712 584 586L506 546Q478 588 445 609T358 631Q287 631 240 586T176 481T158 350Q158 235 209 153T358 70T510 159L590 129Q530 0 382 -11L357 -53Q412 -53 438 -77T465 -136Q465 -180 432 -208T345 -237Z" />
<glyph unicode="&#xc8;" glyph-name="Egrave" horiz-adv-x="599" d="M302 765L124 921H248L390 765H302ZM98 0V700H514V618H185V403H402V321H185V83H536V0H98Z" />
<glyph unicode="&#xc9;" glyph-name="Eacute" horiz-adv-x="599" d="M197 765L339 921H463L285 765H197ZM98 0V700H514V618H185V403H402V321H185V83H536V0H98Z" />
<glyph unicode="&#xca;" glyph-name="Ecircumflex" horiz-adv-x="599" d="M413 765L308 855L203 765H120L267 921H349L495 765H413ZM98 0V700H514V618H185V403H402V321H185V83H536V0H98Z" />
<glyph unicode="&#xcb;" glyph-name="Edieresis" horiz-adv-x="599" d="M246 788T223 788T184 804T168 843T184 882T223 898T262 882T278 843T262 804ZM419 788T396 788T357 804T341 843T357 882T396 898T435 882T451 843T435 804ZM98 0V700H514V618H185V403H402V321H185V83H536V0H98Z"
/>
<glyph unicode="&#xcc;" glyph-name="Igrave" horiz-adv-x="287" d="M161 765L-17 921H107L249 765H161ZM100 0V700H187V0H100Z" />
<glyph unicode="&#xcd;" glyph-name="Iacute" horiz-adv-x="287" d="M31 765L173 921H297L119 765H31ZM100 0V700H187V0H100Z" />
<glyph unicode="&#xce;" glyph-name="Icircumflex" horiz-adv-x="287" d="M249 765L144 855L39 765H-44L103 921H185L331 765H249ZM100 0V700H187V0H100Z" />
<glyph unicode="&#xcf;" glyph-name="Idieresis" horiz-adv-x="287" d="M80 788T57 788T18 804T2 843T18 882T57 898T96 882T112 843T96 804ZM253 788T230 788T191 804T175 843T191 882T230 898T269 882T285 843T269 804ZM100 0V700H187V0H100Z" />
<glyph unicode="&#xd0;" glyph-name="Eth" horiz-adv-x="682" d="M98 310H30V389H98V700H289Q375 700 440 670T542 589T596 478T614 350Q614 285 598 227T546 116T443 32T285 0H98V310ZM296 81Q358 81 404 104T476 168T512 254T524 350Q524 422 503 481T431 580T307
620H185V389H338V310H185V81H296Z" />
<glyph unicode="&#xd1;" glyph-name="Ntilde" horiz-adv-x="708" d="M437 784Q399 784 347 808T272 833Q252 833 239 822T225 788H180Q180 908 279 908Q317 908 369 883T444 858Q463 858 476 870T491 904H536Q536 784 437 784ZM610 0H526L211 500Q193 529 183
549Q185 519 185 500V0H98V700H186L496 202Q512 176 525 150Q523 186 523 201V700H610V0Z" />
<glyph unicode="&#xd2;" glyph-name="Ograve" horiz-adv-x="730" d="M380 766L202 922H326L468 766H380ZM365 -12Q286 -12 227 19T134 104T84 219T68 350T84 480T133 595T226 680T365 712Q429 712 480 691T565 635T621 552T653 454T663 350T654 246T622 148T566
65T481 9T365 -12ZM310 70T365 70T462 95T527 163T561 252T572 350Q572 424 554 484T487 588T365 631Q310 631 269 606T204 538T170 448T158 350Q158 296 169 248T203 159T268 94Z" />
<glyph unicode="&#xd3;" glyph-name="Oacute" horiz-adv-x="730" d="M252 765L394 921H518L340 765H252ZM365 -12Q286 -12 227 19T134 104T84 219T68 350T84 480T133 595T226 680T365 712Q429 712 480 691T565 635T621 552T653 454T663 350T654 246T622 148T566
65T481 9T365 -12ZM310 70T365 70T462 95T527 163T561 252T572 350Q572 424 554 484T487 588T365 631Q310 631 269 606T204 538T170 448T158 350Q158 296 169 248T203 159T268 94Z" />
<glyph unicode="&#xd4;" glyph-name="Ocircumflex" horiz-adv-x="730" d="M470 765L365 855L260 765H177L324 921H406L552 765H470ZM365 -12Q286 -12 227 19T134 104T84 219T68 350T84 480T133 595T226 680T365 712Q429 712 480 691T565 635T621 552T653 454T663
350T654 246T622 148T566 65T481 9T365 -12ZM310 70T365 70T462 95T527 163T561 252T572 350Q572 424 554 484T487 588T365 631Q310 631 269 606T204 538T170 448T158 350Q158 296 169 248T203 159T268 94Z" />
<glyph unicode="&#xd5;" glyph-name="Otilde" horiz-adv-x="730" d="M443 784Q405 784 353 808T278 833Q258 833 245 822T231 788H186Q186 908 285 908Q323 908 375 883T450 858Q469 858 482 870T497 904H542Q542 784 443 784ZM365 -12Q286 -12 227 19T134 104T84
219T68 350T84 480T133 595T226 680T365 712Q429 712 480 691T565 635T621 552T653 454T663 350T654 246T622 148T566 65T481 9T365 -12ZM310 70T365 70T462 95T527 163T561 252T572 350Q572 424 554 484T487 588T365 631Q310 631 269 606T204 538T170 448T158
350Q158 296 169 248T203 159T268 94Z" />
<glyph unicode="&#xd6;" glyph-name="Odieresis" horiz-adv-x="730" d="M301 788T278 788T239 804T223 843T239 882T278 898T317 882T333 843T317 804ZM474 788T451 788T412 804T396 843T412 882T451 898T490 882T506 843T490 804ZM365 -12Q286 -12 227 19T134
104T84 219T68 350T84 480T133 595T226 680T365 712Q429 712 480 691T565 635T621 552T653 454T663 350T654 246T622 148T566 65T481 9T365 -12ZM310 70T365 70T462 95T527 163T561 252T572 350Q572 424 554 484T487 588T365 631Q310 631 269 606T204 538T170 448T158
350Q158 296 169 248T203 159T268 94Z" />
<glyph unicode="&#xd7;" glyph-name="multiply" horiz-adv-x="645" d="M324 282L159 116L96 179L262 344L97 508L157 568L322 404L486 569L549 506L383 342L548 177L488 117L324 282Z" />
<glyph unicode="&#xd8;" glyph-name="Oslash" horiz-adv-x="725" d="M74 -12L142 89Q65 187 65 350Q65 404 74 454T106 552T162 635T247 691T363 712Q459 712 529 663L562 712H652L583 611Q660 513 660 350Q660 281 644 220T595 105T502 20T363 -12Q265 -12 196
38L162 -12H74ZM196 169L481 591Q431 631 363 631Q308 631 266 606T201 538T167 448T156 350Q156 239 196 169ZM363 70Q418 70 459 95T524 163T558 252T570 350Q570 459 529 531L244 109Q293 70 363 70Z" />
<glyph unicode="&#xd9;" glyph-name="Ugrave" horiz-adv-x="689" d="M363 765L185 921H309L451 765H363ZM344 -12Q93 -12 93 263V700H180V263Q180 156 224 113T344 70T464 113T509 263V700H596V263Q596 -12 344 -12Z" />
<glyph unicode="&#xda;" glyph-name="Uacute" horiz-adv-x="689" d="M246 765L388 921H512L334 765H246ZM344 -12Q93 -12 93 263V700H180V263Q180 156 224 113T344 70T464 113T509 263V700H596V263Q596 -12 344 -12Z" />
<glyph unicode="&#xdb;" glyph-name="Ucircumflex" horiz-adv-x="689" d="M450 765L345 855L240 765H157L304 921H386L532 765H450ZM344 -12Q93 -12 93 263V700H180V263Q180 156 224 113T344 70T464 113T509 263V700H596V263Q596 -12 344 -12Z" />
<glyph unicode="&#xdc;" glyph-name="Udieresis" horiz-adv-x="689" d="M281 788T258 788T219 804T203 843T219 882T258 898T297 882T313 843T297 804ZM454 788T431 788T392 804T376 843T392 882T431 898T470 882T486 843T470 804ZM344 -12Q93 -12 93 263V700H180V263Q180
156 224 113T344 70T464 113T509 263V700H596V263Q596 -12 344 -12Z" />
<glyph unicode="&#xdd;" glyph-name="Yacute" horiz-adv-x="641" d="M222 765L364 921H488L310 765H222ZM278 0V275L40 700H138L321 360L506 700H601L365 277V0H278Z" />
<glyph unicode="&#xde;" glyph-name="Thorn" horiz-adv-x="632" d="M98 0V700H185V566H366Q427 566 472 548T543 500T580 433T592 356Q592 273 536 210T366 146H185V0H98ZM372 228Q440 228 472 265T505 356Q505 406 474 445T372 484H185V228H372Z" />
<glyph unicode="&#xdf;" glyph-name="germandbls" horiz-adv-x="562" d="M73 -202V476Q73 558 104 613T179 690T277 712Q367 712 423 662T479 529Q479 479 455 441T384 385Q447 365 481 319T515 210Q515 109 456 49T304 -12Q252 -12 217 4L260 74Q278 68 305 68Q352
68 389 104T426 207Q426 263 390 301T276 340H263V420H276Q329 420 359 446T390 525Q390 575 361 604T278 633Q225 633 193 595T160 479V-160L73 -202Z" />
<glyph unicode="&#xe0;" glyph-name="agrave" horiz-adv-x="526" d="M276 576L98 732H222L364 576H276ZM376 0V47Q313 -12 231 -12Q150 -12 102 32T53 160T108 286T244 329Q318 329 376 296V332Q376 396 348 421T265 447Q188 447 116 396L91 469Q173 523 276 523Q458
523 458 339V0H376ZM244 65Q319 65 376 132V220Q321 254 256 254Q203 254 169 230T135 160Q135 117 163 91T244 65Z" />
<glyph unicode="&#xe1;" glyph-name="aacute" horiz-adv-x="526" d="M163 576L305 732H429L251 576H163ZM376 0V47Q313 -12 231 -12Q150 -12 102 32T53 160T108 286T244 329Q318 329 376 296V332Q376 396 348 421T265 447Q188 447 116 396L91 469Q173 523 276
523Q458 523 458 339V0H376ZM244 65Q319 65 376 132V220Q321 254 256 254Q203 254 169 230T135 160Q135 117 163 91T244 65Z" />
<glyph unicode="&#xe2;" glyph-name="acircumflex" horiz-adv-x="526" d="M381 576L276 666L171 576H88L235 732H317L463 576H381ZM376 0V47Q313 -12 231 -12Q150 -12 102 32T53 160T108 286T244 329Q318 329 376 296V332Q376 396 348 421T265 447Q188 447 116
396L91 469Q173 523 276 523Q458 523 458 339V0H376ZM244 65Q319 65 376 132V220Q321 254 256 254Q203 254 169 230T135 160Q135 117 163 91T244 65Z" />
<glyph unicode="&#xe3;" glyph-name="atilde" horiz-adv-x="526" d="M354 595Q316 595 264 619T189 644Q169 644 156 633T142 599H97Q97 719 196 719Q234 719 286 694T361 669Q380 669 393 681T408 715H453Q453 595 354 595ZM376 0V47Q313 -12 231 -12Q150 -12
102 32T53 160T108 286T244 329Q318 329 376 296V332Q376 396 348 421T265 447Q188 447 116 396L91 469Q173 523 276 523Q458 523 458 339V0H376ZM244 65Q319 65 376 132V220Q321 254 256 254Q203 254 169 230T135 160Q135 117 163 91T244 65Z" />
<glyph unicode="&#xe4;" glyph-name="adieresis" horiz-adv-x="526" d="M212 599T189 599T150 615T134 654T150 693T189 709T228 693T244 654T228 615ZM385 599T362 599T323 615T307 654T323 693T362 709T401 693T417 654T401 615ZM376 0V47Q313 -12 231 -12Q150
-12 102 32T53 160T108 286T244 329Q318 329 376 296V332Q376 396 348 421T265 447Q188 447 116 396L91 469Q173 523 276 523Q458 523 458 339V0H376ZM244 65Q319 65 376 132V220Q321 254 256 254Q203 254 169 230T135 160Q135 117 163 91T244 65Z" />
<glyph unicode="&#xe5;" glyph-name="aring" horiz-adv-x="526" d="M277 571Q228 571 193 606T158 689T193 771T277 805Q325 805 360 771T396 689T361 606T277 571ZM256 635T277 635T312 650T327 689Q327 713 313 727T277 742T241 727T226 689T241 651ZM376 0V47Q313
-12 231 -12Q150 -12 102 32T53 160T108 286T244 329Q318 329 376 296V332Q376 396 348 421T265 447Q188 447 116 396L91 469Q173 523 276 523Q458 523 458 339V0H376ZM244 65Q319 65 376 132V220Q321 254 256 254Q203 254 169 230T135 160Q135 117 163 91T244
65Z" />
<glyph unicode="&#xe6;" glyph-name="ae" horiz-adv-x="857" d="M231 -12Q150 -12 102 32T53 160T108 286T244 329Q318 329 376 296V332Q376 393 349 420T265 447Q188 447 116 396L91 469Q173 523 276 523Q388 523 430 447Q491 523 598 523Q693 523 751 460T810
280Q810 252 807 222H461Q467 150 505 109T600 67Q665 67 711 113L764 54Q698 -12 598 -12Q482 -12 418 83Q380 34 329 11T231 -12ZM460 298H722Q721 376 684 411T599 446Q540 446 502 409T460 298ZM244 65Q286 65 322 87T383 143Q378 177 376 220Q318 254 256
254Q203 254 169 230T135 160Q135 117 163 91T244 65Z" />
<glyph unicode="&#xe7;" glyph-name="ccedilla" horiz-adv-x="500" d="M256 -237Q197 -237 162 -204L211 -170Q221 -183 248 -183Q270 -183 285 -170T300 -135Q300 -116 283 -103T242 -90Q218 -90 204 -97L188 -77L241 -10Q153 -2 103 67T53 255Q53 381 110 452T269
523Q405 523 448 404L366 374Q340 442 270 442Q206 442 174 393T142 255Q142 167 174 119T267 70Q347 70 371 146L452 119Q416 3 294 -11L268 -53Q323 -53 349 -77T375 -136Q375 -180 342 -208T256 -237Z" />
<glyph unicode="&#xe8;" glyph-name="egrave" horiz-adv-x="538" d="M305 576L127 732H251L393 576H305ZM280 -12Q176 -12 115 62T53 256Q53 381 115 452T280 523Q372 523 431 462T491 280Q491 252 488 222H142Q147 152 185 110T282 67Q346 67 392 113L445 54Q379
-12 280 -12ZM141 296H403Q402 375 366 410T280 446Q221 446 183 409T141 296Z" />
<glyph unicode="&#xe9;" glyph-name="eacute" horiz-adv-x="538" d="M167 576L309 732H433L255 576H167ZM280 -12Q176 -12 115 62T53 256Q53 381 115 452T280 523Q372 523 431 462T491 280Q491 252 488 222H142Q147 152 185 110T282 67Q346 67 392 113L445 54Q379
-12 280 -12ZM141 296H403Q402 375 366 410T280 446Q221 446 183 409T141 296Z" />
<glyph unicode="&#xea;" glyph-name="ecircumflex" horiz-adv-x="538" d="M385 576L280 666L175 576H92L239 732H321L467 576H385ZM280 -12Q176 -12 115 62T53 256Q53 381 115 452T280 523Q372 523 431 462T491 280Q491 252 488 222H142Q147 152 185 110T282 67Q346
67 392 113L445 54Q379 -12 280 -12ZM141 296H403Q402 375 366 410T280 446Q221 446 183 409T141 296Z" />
<glyph unicode="&#xeb;" glyph-name="edieresis" horiz-adv-x="538" d="M216 599T193 599T154 615T138 654T154 693T193 709T232 693T248 654T232 615ZM389 599T366 599T327 615T311 654T327 693T366 709T405 693T421 654T405 615ZM280 -12Q176 -12 115 62T53
256Q53 381 115 452T280 523Q372 523 431 462T491 280Q491 252 488 222H142Q147 152 185 110T282 67Q346 67 392 113L445 54Q379 -12 280 -12ZM141 296H403Q402 375 366 410T280 446Q221 446 183 409T141 296Z" />
<glyph unicode="&#xec;" glyph-name="igrave" horiz-adv-x="254" d="M138 576L-40 732H84L226 576H138ZM84 0V511H171V0H84Z" />
<glyph unicode="&#xed;" glyph-name="iacute" horiz-adv-x="254" d="M28 576L170 732H294L116 576H28ZM84 0V511H171V0H84Z" />
<glyph unicode="&#xee;" glyph-name="icircumflex" horiz-adv-x="254" d="M232 576L127 666L22 576H-61L86 732H168L314 576H232ZM84 0V511H171V0H84Z" />
<glyph unicode="&#xef;" glyph-name="idieresis" horiz-adv-x="254" d="M63 599T40 599T1 615T-15 654T1 693T40 709T79 693T95 654T79 615ZM236 599T213 599T174 615T158 654T174 693T213 709T252 693T268 654T252 615ZM84 0V511H171V0H84Z" />
<glyph unicode="&#xf0;" glyph-name="eth" horiz-adv-x="558" d="M279 -12Q179 -12 116 54T53 221Q53 324 116 390T274 456Q325 456 361 434T416 378Q395 509 305 580L241 512L197 555L251 613Q199 638 134 642V712Q229 707 303 669L361 730L406 686L357 634Q505
516 505 269Q505 141 447 65T279 -12ZM221 69T279 69T377 112T417 220Q417 287 378 331T278 376Q220 376 181 333T141 221Q141 156 181 113Z" />
<glyph unicode="&#xf1;" glyph-name="ntilde" horiz-adv-x="563" d="M366 595Q328 595 276 619T201 644Q181 644 168 633T154 599H109Q109 719 208 719Q246 719 298 694T373 669Q392 669 405 681T420 715H465Q465 595 366 595ZM398 0V309Q398 378 369 410T288
443Q170 443 170 311V0H83V511H170V459Q217 523 302 523Q392 523 438 469T485 294V0H398Z" />
<glyph unicode="&#xf2;" glyph-name="ograve" horiz-adv-x="558" d="M304 576L126 732H250L392 576H304ZM383 -12T279 -12T114 59T53 255T114 451T279 523T444 452T505 256T444 60ZM214 69T279 69T380 118T417 256Q417 343 381 393T279 443T178 394T141 255Q141
168 177 119Z" />
<glyph unicode="&#xf3;" glyph-name="oacute" horiz-adv-x="558" d="M166 576L308 732H432L254 576H166ZM383 -12T279 -12T114 59T53 255T114 451T279 523T444 452T505 256T444 60ZM214 69T279 69T380 118T417 256Q417 343 381 393T279 443T178 394T141 255Q141
168 177 119Z" />
<glyph unicode="&#xf4;" glyph-name="ocircumflex" horiz-adv-x="558" d="M384 576L279 666L174 576H91L238 732H320L466 576H384ZM383 -12T279 -12T114 59T53 255T114 451T279 523T444 452T505 256T444 60ZM214 69T279 69T380 118T417 256Q417 343 381 393T279
443T178 394T141 255Q141 168 177 119Z" />
<glyph unicode="&#xf5;" glyph-name="otilde" horiz-adv-x="558" d="M357 595Q319 595 267 619T192 644Q172 644 159 633T145 599H100Q100 719 199 719Q237 719 289 694T364 669Q383 669 396 681T411 715H456Q456 595 357 595ZM383 -12T279 -12T114 59T53 255T114
451T279 523T444 452T505 256T444 60ZM214 69T279 69T380 118T417 256Q417 343 381 393T279 443T178 394T141 255Q141 168 177 119Z" />
<glyph unicode="&#xf6;" glyph-name="odieresis" horiz-adv-x="558" d="M215 599T192 599T153 615T137 654T153 693T192 709T231 693T247 654T231 615ZM388 599T365 599T326 615T310 654T326 693T365 709T404 693T420 654T404 615ZM383 -12T279 -12T114 59T53
255T114 451T279 523T444 452T505 256T444 60ZM214 69T279 69T380 118T417 256Q417 343 381 393T279 443T178 394T141 255Q141 168 177 119Z" />
<glyph unicode="&#xf7;" glyph-name="divide" horiz-adv-x="645" d="M346 486T321 486T280 502T264 542Q264 565 280 581T321 598T362 582T379 542T363 503ZM88 301V385H558V301H88ZM346 88T321 88T280 104T264 143T280 182T321 199T362 183T379 143T363 104Z" />
<glyph unicode="&#xf8;" glyph-name="oslash" horiz-adv-x="558" d="M505 523L450 444Q505 373 505 256Q505 131 444 60T279 -12Q209 -12 156 22L132 -12H53L108 67Q53 138 53 255Q53 380 114 451T279 523Q350 523 401 490L424 523H505ZM141 255Q141 188 162 145L353
421Q322 443 279 443Q214 443 178 394T141 255ZM417 256Q417 322 396 367L204 92Q236 69 279 69Q344 69 380 118T417 256Z" />
<glyph unicode="&#xf9;" glyph-name="ugrave" horiz-adv-x="563" d="M301 576L123 732H247L389 576H301ZM393 0V49Q346 -12 264 -12Q171 -12 125 42T78 216V511H165V203Q165 134 194 102T275 69Q393 69 393 201V511H480V0H393Z" />
<glyph unicode="&#xfa;" glyph-name="uacute" horiz-adv-x="563" d="M163 576L305 732H429L251 576H163ZM393 0V49Q346 -12 264 -12Q171 -12 125 42T78 216V511H165V203Q165 134 194 102T275 69Q393 69 393 201V511H480V0H393Z" />
<glyph unicode="&#xfb;" glyph-name="ucircumflex" horiz-adv-x="563" d="M381 576L276 666L171 576H88L235 732H317L463 576H381ZM393 0V49Q346 -12 264 -12Q171 -12 125 42T78 216V511H165V203Q165 134 194 102T275 69Q393 69 393 201V511H480V0H393Z" />
<glyph unicode="&#xfc;" glyph-name="udieresis" horiz-adv-x="563" d="M212 599T189 599T150 615T134 654T150 693T189 709T228 693T244 654T228 615ZM385 599T362 599T323 615T307 654T323 693T362 709T401 693T417 654T401 615ZM393 0V49Q346 -12 264 -12Q171
-12 125 42T78 216V511H165V203Q165 134 194 102T275 69Q393 69 393 201V511H480V0H393Z" />
<glyph unicode="&#xfd;" glyph-name="yacute" horiz-adv-x="530" d="M150 576L292 732H416L238 576H150ZM144 -194L222 13L33 511H120L247 163Q254 146 263 114Q272 146 279 163L408 511H497L232 -194H144Z" />
<glyph unicode="&#xfe;" glyph-name="thorn" horiz-adv-x="564" d="M301 -12Q221 -12 170 48V-161L83 -202V671L170 712V468Q225 523 301 523Q398 523 455 451T512 256Q512 131 454 60T301 -12ZM290 69Q354 69 388 117T423 256Q423 340 388 391T290 443Q209 443
170 374V138Q223 69 290 69Z" />
<glyph unicode="&#xff;" glyph-name="ydieresis" horiz-adv-x="530" d="M199 599T176 599T137 615T121 654T137 693T176 709T215 693T231 654T215 615ZM372 599T349 599T310 615T294 654T310 693T349 709T388 693T404 654T388 615ZM144 -194L222 13L33 511H120L247
163Q254 146 263 114Q272 146 279 163L408 511H497L232 -194H144Z" />
<glyph unicode="&#x2013;" glyph-name="endash" horiz-adv-x="510" d="M58 250V325H453V250H58Z" />
<glyph unicode="&#x2014;" glyph-name="emdash" horiz-adv-x="590" d="M3 250V325H588V250H3Z" />
<glyph unicode="&#x2018;" glyph-name="quoteleft" horiz-adv-x="225" d="M115 450Q83 450 61 472T39 537Q39 592 67 638T139 712L168 697Q150 681 132 651T112 587Q142 585 162 567T182 521Q182 489 163 470T115 450Z" />
<glyph unicode="&#x2019;" glyph-name="quoteright" horiz-adv-x="225" d="M57 465Q75 481 93 511T113 575Q83 577 63 595T43 641Q43 673 62 692T110 712Q142 712 164 690T186 625Q186 570 158 524T86 450L57 465Z" />
<glyph unicode="&#x201a;" glyph-name="quotesinglbase" horiz-adv-x="225" d="M57 -126Q75 -110 93 -80T113 -16Q83 -14 63 4T43 51Q43 82 62 102T110 122Q142 122 164 100T186 34Q186 -21 158 -67T86 -141L57 -126Z" />
<glyph unicode="&#x201c;" glyph-name="quotedblleft" horiz-adv-x="434" d="M115 450Q83 450 61 472T39 537Q39 592 67 638T139 712L168 697Q150 681 132 651T112 587Q142 585 162 567T182 521Q182 489 163 470T115 450ZM324 450Q293 450 271 472T249 537Q249
592 276 638T348 712L377 697Q326 651 322 587Q351 585 371 567T392 521Q392 489 372 470T324 450Z" />
<glyph unicode="&#x201d;" glyph-name="quotedblright" horiz-adv-x="434" d="M57 465Q75 481 93 511T113 575Q83 577 63 595T43 641Q43 673 62 692T110 712Q142 712 164 690T186 625Q186 570 158 524T86 450L57 465ZM267 465Q318 511 322 575Q293 577 273 595T252
641Q252 673 272 692T320 712Q351 712 373 690T395 625Q395 570 368 524T296 450L267 465Z" />
<glyph unicode="&#x201e;" glyph-name="quotedblbase" horiz-adv-x="434" d="M57 -126Q75 -110 93 -80T113 -16Q83 -14 63 4T43 51Q43 82 62 102T110 122Q142 122 164 100T186 34Q186 -21 158 -67T86 -141L57 -126ZM267 -126Q318 -80 322 -16Q293 -14 273 4T252
51Q252 82 272 102T320 122Q351 122 373 99T395 34Q395 -21 368 -67T296 -141L267 -126Z" />
<glyph unicode="&#x2022;" glyph-name="bullet" horiz-adv-x="411" d="M205 218Q146 218 107 256T68 350Q68 406 107 445T205 484Q263 484 303 445T344 350Q344 295 304 257T205 218Z" />
<glyph unicode="&#x2039;" glyph-name="guilsinglleft" horiz-adv-x="308" d="M190 0L38 256L190 511H285L133 256L285 0H190Z" />
<glyph unicode="&#x203a;" glyph-name="guilsinglright" horiz-adv-x="308" d="M23 0L175 256L23 511H118L270 256L118 0H23Z" />
</font>
</defs>
</svg>
