<?xml version="1.0" encoding="UTF-8"?>
<svg width="1109px" height="197px" viewBox="0 0 1109 197" version="1.1" xmlns="http://www.w3.org/2000/svg" xmlns:xlink="http://www.w3.org/1999/xlink">
    <title>Slice</title>
    <g id="Page-1" stroke="none" stroke-width="1" fill="none" fill-rule="evenodd">
        <g id="flow-logo" transform="translate(6.000000, 5.000000)" fill="#302D2A" fill-rule="nonzero">
            <path d="M0,183 L0,11 L97,11 L97,41.7763348 L35.2055838,41.7763348 L35.2055838,80.4949495 L91.5837563,80.4949495 L88.6294416,110.774892 L35.2055838,110.774892 L35.2055838,183 L0,183 Z M119,149.195219 L119,5.92828685 L153.553672,0 L153.553672,145.737052 C153.553672,153.394422 156.039548,156.358566 163,156.358566 L160.265537,186 C134.909605,186 119,177.354582 119,149.195219 Z M241.5,186 C201.609023,186 176,155.216418 176,120 C176,84.7835821 202.347744,54 241.5,54 C280.652256,54 307,84.7835821 307,120 C307,155.216418 281.390977,186 241.5,186 Z M241,156 C256.737705,156 271,141.942568 271,119.5 C271,96.8108108 256.245902,83 241,83 C225.754098,83 211,96.8108108 211,119.5 C211,141.942568 225.262295,156 241,156 Z M349.113208,182 L316,57 L350.830189,57 L362.603774,109.696078 C364.566038,118.764706 366.773585,131.019608 368.735849,143.029412 C371.188679,131.264706 373.886792,119.009804 376.339623,109.941176 L391.056604,57 L422.943396,57 L437.660377,109.941176 C440.113208,119.009804 442.811321,131.264706 445.264151,143.029412 C447.226415,131.019608 449.433962,118.764706 451.396226,109.696078 L463.169811,57 L498,57 L464.886792,182 L429.320755,182 L413.867925,126.117647 C411.660377,118.27451 409.207547,107.490196 407,96.7058824 C404.792453,107.490196 402.339623,118.27451 400.132075,126.117647 L384.679245,182 L349.113208,182 Z" id="Flow"></path>
        </g>
        <path d="M621.35,188 C631.07,188 639.905,186.425 647.855,183.275 C655.805,180.125 662.615,175.7 668.285,170 C673.955,164.3 678.35,157.475 681.47,149.525 C684.59,141.575 686.15,132.8 686.15,123.2 C686.15,113.6 684.59,104.825 681.47,96.875 C678.35,88.925 673.955,82.1 668.285,76.4 C662.615,70.7 655.805,66.275 647.855,63.125 C639.905,59.975 631.07,58.4 621.35,58.4 L621.35,58.4 L572.39,58.4 L572.39,188 L621.35,188 Z M621.35,170.99 L593.54,170.99 L593.54,75.41 L621.35,75.41 C628.01,75.41 634.01,76.505 639.35,78.695 C644.69,80.885 649.235,84.02 652.985,88.1 C656.735,92.18 659.615,97.19 661.625,103.13 C663.635,109.07 664.64,115.76 664.64,123.2 C664.64,130.7 663.635,137.405 661.625,143.315 C659.615,149.225 656.735,154.235 652.985,158.345 C649.235,162.455 644.69,165.59 639.35,167.75 C634.01,169.91 628.01,170.99 621.35,170.99 L621.35,170.99 Z M775.77381,189.35 C785.49381,189.35 794.32881,187.7 802.27881,184.4 C810.22881,181.1 817.03881,176.525 822.70881,170.675 C828.37881,164.825 832.77381,157.85 835.89381,149.75 C839.01381,141.65 840.57381,132.8 840.57381,123.2 C840.57381,113.6 839.01381,104.75 835.89381,96.65 C832.77381,88.55 828.37881,81.56 822.70881,75.68 C817.03881,69.8 810.22881,65.21 802.27881,61.91 C794.32881,58.61 785.49381,56.96 775.77381,56.96 C766.11381,56.96 757.30881,58.61 749.35881,61.91 C741.40881,65.21 734.58381,69.8 728.88381,75.68 C723.18381,81.56 718.77381,88.55 715.65381,96.65 C712.53381,104.75 710.97381,113.6 710.97381,123.2 C710.97381,132.8 712.53381,141.65 715.65381,149.75 C718.77381,157.85 723.18381,164.825 728.88381,170.675 C734.58381,176.525 741.40881,181.1 749.35881,184.4 C757.30881,187.7 766.11381,189.35 775.77381,189.35 Z M775.77381,171.17 C769.17381,171.17 763.20381,170.075 757.86381,167.885 C752.52381,165.695 747.96381,162.545 744.18381,158.435 C740.40381,154.325 737.49381,149.3 735.45381,143.36 C733.41381,137.42 732.39381,130.7 732.39381,123.2 C732.39381,115.76 733.41381,109.07 735.45381,103.13 C737.49381,97.19 740.40381,92.15 744.18381,88.01 C747.96381,83.87 752.52381,80.69 757.86381,78.47 C763.20381,76.25 769.17381,75.14 775.77381,75.14 C782.43381,75.14 788.43381,76.25 793.77381,78.47 C799.11381,80.69 803.65881,83.87 807.40881,88.01 C811.15881,92.15 814.03881,97.19 816.04881,103.13 C818.05881,109.07 819.06381,115.76 819.06381,123.2 C819.06381,130.7 818.05881,137.42 816.04881,143.36 C814.03881,149.3 811.15881,154.325 807.40881,158.435 C803.65881,162.545 799.11381,165.695 793.77381,167.885 C788.43381,170.075 782.43381,171.17 775.77381,171.17 Z M927.497619,189.44 C938.177619,189.44 947.357619,187.715 955.037619,184.265 C962.717619,180.815 969.197619,175.91 974.477619,169.55 L974.477619,169.55 L966.107619,160.46 C965.267619,159.56 964.277619,159.11 963.137619,159.11 C961.937619,159.11 960.737619,159.65 959.537619,160.73 C957.437619,162.65 955.322619,164.27 953.192619,165.59 C951.062619,166.91 948.797619,168.005 946.397619,168.875 C943.997619,169.745 941.372619,170.375 938.522619,170.765 C935.672619,171.155 932.447619,171.35 928.847619,171.35 C922.967619,171.35 917.477619,170.27 912.377619,168.11 C907.277619,165.95 902.837619,162.815 899.057619,158.705 C895.277619,154.595 892.307619,149.555 890.147619,143.585 C887.987619,137.615 886.907619,130.82 886.907619,123.2 C886.907619,115.64 887.942619,108.89 890.012619,102.95 C892.082619,97.01 894.977619,91.97 898.697619,87.83 C902.417619,83.69 906.857619,80.54 912.017619,78.38 C917.177619,76.22 922.847619,75.14 929.027619,75.14 C934.367619,75.14 938.822619,75.695 942.392619,76.805 C945.962619,77.915 948.932619,79.145 951.302619,80.495 C953.672619,81.845 955.622619,83.075 957.152619,84.185 C958.682619,85.295 960.047619,85.85 961.247619,85.85 C962.387619,85.85 963.287619,85.61 963.947619,85.13 C964.607619,84.65 965.177619,84.08 965.657619,83.42 L965.657619,83.42 L972.587619,73.61 C967.307619,68.57 961.082619,64.535 953.912619,61.505 C946.742619,58.475 938.477619,56.96 929.117619,56.96 C919.697619,56.96 911.072619,58.58 903.242619,61.82 C895.412619,65.06 888.692619,69.605 883.082619,75.455 C877.472619,81.305 873.122619,88.295 870.032619,96.425 C866.942619,104.555 865.397619,113.48 865.397619,123.2 C865.397619,132.92 866.852619,141.83 869.762619,149.93 C872.672619,158.03 876.827619,165.005 882.227619,170.855 C887.627619,176.705 894.152619,181.265 901.802619,184.535 C909.452619,187.805 918.017619,189.44 927.497619,189.44 Z M1033.59143,189.44 C1040.61143,189.44 1046.86643,188.36 1052.35643,186.2 C1057.84643,184.04 1062.46643,181.085 1066.21643,177.335 C1069.96643,173.585 1072.83143,169.19 1074.81143,164.15 C1076.79143,159.11 1077.78143,153.71 1077.78143,147.95 C1077.78143,142.61 1076.91143,138.08 1075.17143,134.36 C1073.43143,130.64 1071.13643,127.49 1068.28643,124.91 C1065.43643,122.33 1062.18143,120.2 1058.52143,118.52 C1054.86143,116.84 1051.12643,115.34 1047.31643,114.02 C1043.50643,112.7 1039.77143,111.455 1036.11143,110.285 C1032.45143,109.115 1029.19643,107.75 1026.34643,106.19 C1023.49643,104.63 1021.20143,102.755 1019.46143,100.565 C1017.72143,98.375 1016.85143,95.63 1016.85143,92.33 C1016.85143,89.75 1017.31643,87.365 1018.24643,85.175 C1019.17643,82.985 1020.57143,81.08 1022.43143,79.46 C1024.29143,77.84 1026.58643,76.58 1029.31643,75.68 C1032.04643,74.78 1035.21143,74.33 1038.81143,74.33 C1042.71143,74.33 1046.07143,74.825 1048.89143,75.815 C1051.71143,76.805 1054.15643,77.885 1056.22643,79.055 C1058.29643,80.225 1060.03643,81.29 1061.44643,82.25 C1062.85643,83.21 1064.13143,83.69 1065.27143,83.69 C1066.35143,83.69 1067.25143,83.435 1067.97143,82.925 C1068.69143,82.415 1069.38143,81.62 1070.04143,80.54 L1070.04143,80.54 L1075.17143,70.46 C1070.67143,66.14 1065.31643,62.81 1059.10643,60.47 C1052.89643,58.13 1046.07143,56.96 1038.63143,56.96 C1032.03143,56.96 1026.15143,57.98 1020.99143,60.02 C1015.83143,62.06 1011.49643,64.775 1007.98643,68.165 C1004.47643,71.555 1001.80643,75.44 999.976429,79.82 C998.146429,84.2 997.231429,88.73 997.231429,93.41 C997.231429,99.29 998.101429,104.195 999.841429,108.125 C1001.58143,112.055 1003.87643,115.355 1006.72643,118.025 C1009.57643,120.695 1012.83143,122.855 1016.49143,124.505 C1020.15143,126.155 1023.87143,127.595 1027.65143,128.825 C1031.43143,130.055 1035.15143,131.21 1038.81143,132.29 C1042.47143,133.37 1045.72643,134.69 1048.57643,136.25 C1051.42643,137.81 1053.72143,139.745 1055.46143,142.055 C1057.20143,144.365 1058.07143,147.35 1058.07143,151.01 C1058.07143,157.55 1055.98643,162.68 1051.81643,166.4 C1047.64643,170.12 1041.75143,171.98 1034.13143,171.98 C1029.45143,171.98 1025.43143,171.335 1022.07143,170.045 C1018.71143,168.755 1015.84643,167.345 1013.47643,165.815 C1011.10643,164.285 1009.08143,162.875 1007.40143,161.585 C1005.72143,160.295 1004.19143,159.65 1002.81143,159.65 C1001.79143,159.65 1000.86143,159.89 1000.02143,160.37 C999.181429,160.85 998.491429,161.51 997.951429,162.35 L997.951429,162.35 L991.831429,172.43 C994.291429,175.01 997.081429,177.35 1000.20143,179.45 C1003.32143,181.55 1006.66643,183.335 1010.23643,184.805 C1013.80643,186.275 1017.55643,187.415 1021.48643,188.225 C1025.41643,189.035 1029.45143,189.44 1033.59143,189.44 Z" id="DOCS" fill="#36AD68" fill-rule="nonzero"></path>
    </g>
</svg>