<?xml version="1.0" encoding="UTF-8"?>
<svg width="498px" height="186px" viewBox="0 0 498 186" version="1.1" xmlns="http://www.w3.org/2000/svg" xmlns:xlink="http://www.w3.org/1999/xlink">
    <!-- Generator: Sketch 57.1 (83088) - https://sketch.com -->
    <title>Flow</title>
    <desc>Created with Sketch.</desc>
    <g id="Page-1" stroke="none" stroke-width="1" fill="none" fill-rule="evenodd">
        <path d="M0,183 L0,11 L97,11 L97,41.7763348 L35.2055838,41.7763348 L35.2055838,80.4949495 L91.5837563,80.4949495 L88.6294416,110.774892 L35.2055838,110.774892 L35.2055838,183 L0,183 Z M119,149.195219 L119,5.92828685 L153.553672,0 L153.553672,145.737052 C153.553672,153.394422 156.039548,156.358566 163,156.358566 L160.265537,186 C134.909605,186 119,177.354582 119,149.195219 Z M241.5,186 C201.609023,186 176,155.216418 176,120 C176,84.7835821 202.347744,54 241.5,54 C280.652256,54 307,84.7835821 307,120 C307,155.216418 281.390977,186 241.5,186 Z M241,156 C256.737705,156 271,141.942568 271,119.5 C271,96.8108108 256.245902,83 241,83 C225.754098,83 211,96.8108108 211,119.5 C211,141.942568 225.262295,156 241,156 Z M349.113208,182 L316,57 L350.830189,57 L362.603774,109.696078 C364.566038,118.764706 366.773585,131.019608 368.735849,143.029412 C371.188679,131.264706 373.886792,119.009804 376.339623,109.941176 L391.056604,57 L422.943396,57 L437.660377,109.941176 C440.113208,119.009804 442.811321,131.264706 445.264151,143.029412 C447.226415,131.019608 449.433962,118.764706 451.396226,109.696078 L463.169811,57 L498,57 L464.886792,182 L429.320755,182 L413.867925,126.117647 C411.660377,118.27451 409.207547,107.490196 407,96.7058824 C404.792453,107.490196 402.339623,118.27451 400.132075,126.117647 L384.679245,182 L349.113208,182 Z" id="Flow" fill="#302D2A" fill-rule="nonzero"></path>
    </g>
</svg>