<?xml version="1.0" encoding="UTF-8"?>
<svg width="114px" height="114px" viewBox="0 0 114 114" version="1.1" xmlns="http://www.w3.org/2000/svg" xmlns:xlink="http://www.w3.org/1999/xlink">
    <title>go</title>
    <g id="Page-1" stroke="none" stroke-width="1" fill="none" fill-rule="evenodd">
        <g id="Flow-Go-SDK">
            <circle id="Black" fill="#000000" cx="57" cy="57" r="57"></circle>
            <g id="Go_Logo_Blue" transform="translate(18.000000, 37.000000)" fill="#FFFFFF" fill-rule="nonzero">
                <g id="CXHf1q_3_">
                    <g id="Group">
                        <path d="M38.6684211,11.4871795 C35.3940789,12.3076923 33.1592105,12.9230769 29.9368421,13.7435897 C29.1572368,13.9487179 29.1052632,14 28.4296053,13.2307692 C27.65,12.3589744 27.0782895,11.7948718 25.9868421,11.2820513 C22.7125,9.69230769 19.5421053,10.1538462 16.5796053,12.0512821 C13.0453947,14.3076923 11.2263158,17.6410256 11.2782895,21.7948718 C11.3302632,25.8974359 14.1888158,29.2820513 18.2947368,29.8461538 C21.8289474,30.3076923 24.7914474,29.0769231 27.1302632,26.4615385 C27.5980263,25.8974359 28.0138158,25.2820513 28.5335526,24.5641026 C26.6625,24.5641026 24.3236842,24.5641026 18.5026316,24.5641026 C17.4111842,24.5641026 17.1513158,23.8974359 17.5151316,23.025641 C18.1907895,21.4358974 19.4381579,18.7692308 20.1657895,17.4358974 C20.3217105,17.1282051 20.6855263,16.6153846 21.4651316,16.6153846 C24.1157895,16.6153846 33.8868421,16.6153846 40.3835526,16.6153846 C40.2796053,18 40.2796053,19.3846154 40.0717105,20.7692308 C39.5,24.4615385 38.0967105,27.8461538 35.8098684,30.8205128 C32.0677632,35.6923077 27.1822368,38.7179487 20.9973684,39.5384615 C15.9039474,40.2051282 11.1743421,39.2307692 7.01644737,36.1538462 C3.17039474,33.2820513 0.9875,29.4871795 0.415789474,24.7692308 C-0.259868421,19.1794872 1.40328947,14.1538462 4.83355263,9.74358974 C8.52368421,4.97435897 13.4092105,1.94871795 19.3861842,0.871794872 C24.2717105,-1.99840144e-15 28.9493421,0.564102564 33.1592105,3.38461538 C35.9138158,5.17948718 37.8888158,7.64102564 39.1881579,10.6153846 C39.5,11.0769231 39.2921053,11.3333333 38.6684211,11.4871795 Z" id="Path"></path>
                        <path d="M55.8717105,39.8461538 C51.1421053,39.7435897 46.8282895,38.4102564 43.1901316,35.3333333 C40.1236842,32.7179487 38.2006579,29.3846154 37.5769737,25.4358974 C36.6414474,19.6410256 38.2526316,14.5128205 41.7868421,9.94871795 C45.5809211,5.02564103 50.1546053,2.46153846 56.3394737,1.38461538 C61.6407895,0.461538462 66.6302632,0.974358974 71.1519737,4 C75.2578947,6.76923077 77.8046053,10.5128205 78.4802632,15.4358974 C79.3638158,22.3589744 77.3368421,28 72.5032895,32.8205128 C69.0730263,36.2564103 64.8631579,38.4102564 60.0296053,39.3846154 C58.6263158,39.6410256 57.2230263,39.6923077 55.8717105,39.8461538 Z M68.2414474,19.1282051 C68.1894737,18.4615385 68.1894737,17.9487179 68.0855263,17.4358974 C67.15,12.3589744 62.4203947,9.48717949 57.4828947,10.6153846 C52.6493421,11.6923077 49.5309211,14.7179487 48.3875,19.5384615 C47.4519737,23.5384615 49.4269737,27.5897436 53.1690789,29.2307692 C56.0276316,30.4615385 58.8861842,30.3076923 61.6407895,28.9230769 C65.7467105,26.8205128 67.9815789,23.5384615 68.2414474,19.1282051 Z" id="Shape"></path>
                    </g>
                </g>
            </g>
        </g>
    </g>
</svg>