<?xml version="1.0" encoding="UTF-8"?>
<svg width="114px" height="114px" viewBox="0 0 114 114" version="1.1" xmlns="http://www.w3.org/2000/svg" xmlns:xlink="http://www.w3.org/1999/xlink">
    <title>Slice</title>
    <defs>
        <circle id="path-1" cx="57" cy="57" r="57"></circle>
    </defs>
    <g id="Page-1" stroke="none" stroke-width="1" fill="none" fill-rule="evenodd">
        <g id="Flow-Playground">
            <circle id="Oval" fill="#000000" cx="57" cy="57" r="57"></circle>
            <g id="beach-(1)">
                <mask id="mask-2" fill="white">
                    <use xlink:href="#path-1"></use>
                </mask>
                <use id="Oval" fill="#000000" xlink:href="#path-1"></use>
                <path d="M80.6735297,93.296206 C72.0854729,88.5260226 62.5817209,86.1048903 53.0508358,86.1529445 L59.7618612,55.8129042 L69.3772,54.0419922 C69.7930004,47.5708008 70.1953125,43.171875 70.1953125,35.4975586 C77.4167453,39.9912109 83.2261918,47.5708008 86.3847656,58 C75.0463886,54.5908203 69.3772,52.8862305 69.3772,52.8862305 C69.3772,52.8862305 59.0393316,55.6144803 59.7618612,55.8129042 L90.8813032,64.3595496 C90.9880385,64.3887825 91.0962113,64.4031988 91.2036653,64.4031988 C91.5262071,64.4031988 91.8422801,64.2740531 92.0906103,64.0323803 C92.4215975,63.7100165 92.5908645,63.2280726 92.543786,62.7409229 C91.852163,55.573434 88.5431898,48.1230258 83.2261918,41.7616467 C78.248267,35.8059254 72.0378553,31.4432018 65.6127152,29.3612522 L66.1656183,26.8612308 C66.3436901,26.055922 65.9021942,25.2422037 65.1796646,25.0437797 C64.4571351,24.8459565 63.7266993,25.3371108 63.5486275,26.1424196 L62.9955447,28.642441 C56.4379738,27.1587666 49.1194199,27.8058969 42.2278071,30.5017393 C34.8670263,33.3811889 28.829655,38.2649004 25.2281481,44.2532586 C24.9834117,44.6601178 24.9322003,45.1744983 25.0908657,45.6314139 C25.2495311,46.0883296 25.5983075,46.4301153 26.0250689,46.5474477 L57.1446906,55.094093 L50.2557732,86.238441 C47.0639572,86.4168423 43.8787897,86.8703541 40.7336929,87.6113904 C40.0054133,87.7829841 39.5400188,88.5798834 39.6938326,89.391199 C39.8476464,90.2025146 40.5619102,90.7208997 41.2910882,90.5499067 C44.030627,89.9043782 46.8021503,89.4863064 49.5812206,89.2876822 L52.3856271,89.1615399 C61.7238855,88.9937505 71.0572923,91.3103649 79.4714101,95.9842396 L100.819004,107.842022 C101.01217,107.949343 101.217195,108 101.419166,108 C101.914029,108 102.390564,107.695056 102.626316,107.168061 C102.958382,106.425823 102.68759,105.524206 102.021483,105.153988 C91.3490483,99.2223219 91.3475472,99.2250235 80.6735297,93.296206 Z M52.7285156,48.5336914 C57.6953125,36.0209961 61.2296872,32.1377452 63.6186523,32.7861328 C66.0076175,33.4314915 66.2062986,38.6798149 64.765625,52.0229492 L52.7285156,48.5336914 Z M32.1582031,42.7797852 C38.0776367,34.7036133 46.2617188,32.515625 56.1455078,32.515625 C55.2402626,33.4178296 49.5310889,41.347269 47.5644531,47.0371094 L32.1582031,42.7797852 Z" id="Shape" fill="#FFFFFF" fill-rule="nonzero" mask="url(#mask-2)"></path>
                <path d="M116.204784,113.067822 L107.076209,108.16291 C106.366562,107.781484 105.504956,108.092772 105.15109,108.857276 C104.797414,109.622192 105.085828,110.550901 105.795284,110.932328 L114.92386,115.837239 C115.129596,115.947809 115.347964,116 115.563078,116 C116.090146,116 116.597693,115.685823 116.848788,115.142873 C117.202654,114.377957 116.91424,113.449042 116.204784,113.067822 L116.204784,113.067822 Z" id="Path" fill="#FFFFFF" fill-rule="nonzero" mask="url(#mask-2)"></path>
                <path d="M35.1247146,90.0659062 C33.662441,90.5110754 32.1984479,91.0114871 30.7730463,91.5533307 L25.8954257,93.4075445 C25.1619963,93.6864478 24.8081773,94.4706055 25.1050643,95.1593442 C25.3306908,95.6825345 25.8671507,96 26.4336051,96 C26.6126161,96 26.7946839,95.9682535 26.9708292,95.9013525 L31.8486409,94.0471388 C33.211188,93.5291499 34.6107982,93.0507993 36.008689,92.6251803 C36.7614142,92.3959595 37.1738846,91.6372708 36.9297266,90.9305961 C36.6857595,90.2239215 35.8778218,89.8368647 35.1247146,90.0659062 Z" id="Path" fill="#FFFFFF" fill-rule="nonzero" mask="url(#mask-2)"></path>
                <path d="M91.5060356,107 L89.4939644,107 C88.6688977,107 88,107.6716 88,108.5 C88,109.3284 88.6688977,110 89.4939644,110 L91.5060356,110 C92.3311023,110 93,109.3284 93,108.5 C93,107.6716 92.3311023,107 91.5060356,107 Z" id="Path" fill="#FFFFFF" fill-rule="nonzero" mask="url(#mask-2)"></path>
                <path d="M10.6992188,102.303711 C12.9108073,99.8258464 17.6777344,97.0579427 25,94 C35.9833984,89.4130859 44.7001953,86.7363281 61.0771484,89.4130859 C71.9951172,91.1975911 86.6360677,98.3932292 105,111" id="Path-2" stroke="#FFFFFF" stroke-width="6" mask="url(#mask-2)"></path>
                <line x1="58.5" y1="54.0419922" x2="50.684082" y2="88.3477195" id="Path-3" stroke="#FFFFFF" stroke-width="5" mask="url(#mask-2)"></line>
            </g>
        </g>
    </g>
</svg>