<?xml version="1.0" encoding="iso-8859-1"?>
<!-- Generator: Adobe Illustrator 19.0.0, SVG Export Plug-In . SVG Version: 6.00 Build 0)  -->
<svg version="1.1" id="Capa_1" xmlns="http://www.w3.org/2000/svg" xmlns:xlink="http://www.w3.org/1999/xlink" x="0px" y="0px"
	 viewBox="0 0 512 512" style="enable-background:new 0 0 512 512;" xml:space="preserve">
<g>
	<g>
		<path d="M121,68.5H45c-8.291,0-15,6.709-15,15s6.709,15,15,15h76c8.291,0,15-6.709,15-15S129.291,68.5,121,68.5z"/>
	</g>
</g>
<g>
	<g>
		<path d="M121,188.5H45c-8.291,0-15,6.709-15,15s6.709,15,15,15h76c8.291,0,15-6.709,15-15S129.291,188.5,121,188.5z"/>
	</g>
</g>
<g>
	<g>
		<path d="M91,128.5H15c-8.291,0-15,6.709-15,15s6.709,15,15,15h76c8.291,0,15-6.709,15-15S99.291,128.5,91,128.5z"/>
	</g>
</g>
<g>
	<g>
		<path d="M482,203.5h-91v-60c0-26.346-32.229-40.218-51.22-21.202L219.789,242.289c-11.719,11.719-11.719,30.703,0,42.422
			l68.789,68.789l-83.789,83.789c-11.719,11.719-11.719,30.703,0,42.422c11.718,11.718,30.703,11.719,42.422,0l105-105
			c11.719-11.719,11.719-30.703,0-42.422L283.422,263.5L331,215.922V233.5c0,16.567,13.433,30,30,30h121c16.567,0,30-13.433,30-30
			S498.567,203.5,482,203.5z"/>
	</g>
</g>
<g>
	<g>
		<path d="M280.14,51.04c-11.924-7.925-27.744-6.357-37.852,3.75l-82.5,82.5c-11.719,11.719-11.719,30.703,0,42.422
			s30.704,11.718,42.423-0.001l65.112-65.112l21.934,15.8l29.306-29.306c4.902-4.902,10.684-8.707,17.007-11.678L280.14,51.04z"/>
	</g>
</g>
<g>
	<g>
		<path d="M198.578,305.922c-7.601-7.601-12.675-16.956-15.35-27.072L24.789,437.289c-11.719,11.719-11.719,30.703,0,42.422
			c11.718,11.718,30.703,11.719,42.422,0l152.578-152.578L198.578,305.922z"/>
	</g>
</g>
<g>
	<g>
		<circle cx="406" cy="68.5" r="45"/>
	</g>
</g>
<g>
</g>
<g>
</g>
<g>
</g>
<g>
</g>
<g>
</g>
<g>
</g>
<g>
</g>
<g>
</g>
<g>
</g>
<g>
</g>
<g>
</g>
<g>
</g>
<g>
</g>
<g>
</g>
<g>
</g>
</svg>
