<?xml version="1.0" encoding="UTF-8"?>
<svg width="114px" height="114px" viewBox="0 0 114 114" version="1.1" xmlns="http://www.w3.org/2000/svg" xmlns:xlink="http://www.w3.org/1999/xlink">
    <title>vscode</title>
    <defs>
        <path d="M43.2561479,60.739262 C44.2168979,61.1155413 45.3125151,61.0913502 46.2823198,60.6223782 L58.8411714,54.5480172 C60.1607729,53.9097075 61,52.5669817 61,51.0941989 L61,9.90588268 C61,8.43305192 60.1607729,7.09054173 58.8411714,6.45223204 L46.2823198,0.377633885 C45.0096596,-0.237907913 43.5201636,-0.0871384447 42.4033393,0.729092232 C42.2436909,0.84569333 42.0916675,0.975879766 41.9491753,1.11934975 L17.9065971,23.1674193 L7.43418387,15.1768118 C6.45930379,14.4329714 5.09571551,14.4939043 4.19029441,15.3217907 L0.831448553,18.3929825 C-0.276056486,19.4056554 -0.277326525,21.1570192 0.828705936,22.1713208 L9.91073621,30.4999091 L0.828705936,38.8285931 C-0.277326525,39.8429427 -0.276056486,41.5942824 0.831448553,42.6069554 L4.19029441,45.6780274 C5.09571551,46.5060336 6.45930379,46.5668706 7.43418387,45.823174 L17.9065971,37.8324468 L41.9491753,59.8805977 C42.3294721,60.2631045 42.7760112,60.551242 43.2561479,60.739262 Z M45.7592925,16.5805183 L27.51648,30.4999091 L45.7592925,44.4193717 L45.7592925,16.5805183 Z" id="path-1"></path>
        <linearGradient x1="50.0000484%" y1="-3.91645412e-07%" x2="50.0000484%" y2="99.999921%" id="linearGradient-3">
            <stop stop-color="#FFFFFF" offset="0%"></stop>
            <stop stop-color="#FFFFFF" stop-opacity="0" offset="100%"></stop>
        </linearGradient>
    </defs>
    <g id="Page-1" stroke="none" stroke-width="1" fill="none" fill-rule="evenodd">
        <g id="Flow-VS-Code">
            <circle id="Black" fill="#000000" cx="57" cy="57" r="57"></circle>
            <g id="Visual_Studio_Code_1.35_icon" transform="translate(23.000000, 27.000000)">
                <mask id="mask-2" fill="white">
                    <use xlink:href="#path-1"></use>
                </mask>
                <g id="Shape"></g>
                <g id="Group" mask="url(#mask-2)">
                    <path d="M58.849572,6.58568867 L46.329856,0.534078828 C44.8808093,-0.166392273 43.1488366,0.129081957 42.0114358,1.27083016 L1.02625023,38.7857539 C-0.0761479377,39.794875 -0.0748804669,41.5371875 1.02898455,42.5446406 L4.3767856,45.5998828 C5.27925331,46.4236211 6.63836654,46.4841445 7.61002296,45.7442813 L56.9656926,8.15562852 C58.6214747,6.89459648 60.9997626,8.08018867 60.9997626,10.1666746 L60.9997626,10.0207512 C60.9997626,8.55615547 60.1640389,7.2210418 58.849572,6.58568867 Z" id="Path" fill="#FFFFFF" fill-rule="nonzero"></path>
                    <path d="M58.849572,54.4143828 L46.329856,60.4660117 C44.8808093,61.1663203 43.1488366,60.8708516 42.0114358,59.7292461 L1.02625023,22.2142937 C-0.0761479377,21.2052441 -0.0748804669,19.4628602 1.02898455,18.4554309 L4.3767856,15.4000695 C5.27925331,14.5764504 6.63836654,14.5158078 7.61002296,15.2558379 L56.9656926,52.8443477 C58.6214747,54.105332 60.9997626,52.9198828 60.9997626,50.8332539 L60.9997626,50.9793203 C60.9997626,52.4437969 60.1640389,53.7788867 58.849572,54.4143828 Z" id="Path" fill="#FFFFFF" fill-rule="nonzero"></path>
                    <path d="M46.3305681,60.4669648 C44.8810467,61.1667969 43.1490739,60.8710898 42.0116732,59.7292461 C43.4130117,61.1360586 45.8093385,60.1395664 45.8093385,58.149918 L45.8093385,2.84998672 C45.8093385,0.860331133 43.4130117,-0.136100293 42.0116732,1.27080395 C43.1490739,0.128949711 44.8810467,-0.166941512 46.3305681,0.53291125 L58.8481479,6.57620508 C60.1635642,7.21122461 61,8.54681484 61,10.0120539 L61,50.9881367 C61,52.4533281 60.1635642,53.7888945 58.8481479,54.4239141 L46.3305681,60.4669648 Z" id="Path" fill="#FFFFFF" fill-rule="nonzero"></path>
                    <g opacity="0.25" style="mix-blend-mode: overlay;" fill="url(#linearGradient-3)" id="Shape">
                        <path d="M43.2881634,60.5834844 C44.2451751,60.9575859 45.3365292,60.9337578 46.302323,60.4672031 L58.8123074,54.4239141 C60.1270117,53.7888945 60.9629728,52.4533281 60.9629728,50.9881367 L60.9629728,10.0120777 C60.9629728,8.54683867 60.1270117,7.21124844 58.8125447,6.57622891 L46.302323,0.532951758 C45.0348521,-0.0794189023 43.5511518,0.0705734258 42.4384358,0.882596133 C42.2796459,0.998596211 42.128214,1.1281116 41.9860389,1.27084207 L18.0371778,23.2052578 L7.60551323,15.2558379 C6.63445019,14.5158316 5.27614397,14.5764742 4.37424591,15.4000695 L1.02848136,18.4554309 C-0.0747143191,19.462884 -0.0759794163,21.2052441 1.02574942,22.2143176 L10.0724529,30.5 L1.02574942,38.7857539 C-0.0759794163,39.794875 -0.0747143191,41.5371875 1.02848136,42.5446406 L4.37424591,45.5998828 C5.27614397,46.4236211 6.63445019,46.4841445 7.60551323,45.7442813 L18.0371778,37.7947422 L41.9860389,59.7292461 C42.364856,60.1097813 42.8098949,60.3964336 43.2881634,60.5834844 Z M45.7815681,16.652309 L27.6097393,30.5 L45.7815681,44.3477148 L45.7815681,16.652309 Z"></path>
                    </g>
                </g>
            </g>
        </g>
    </g>
</svg>